<svg width="16" height="50" viewBox="0 0 16 50" fill="none" xmlns="http://www.w3.org/2000/svg">
<path fill-rule="evenodd" clip-rule="evenodd" d="M1.40991 49.1762C0.966326 48.9534 0.629196 48.5638 0.472435 48.0928C0.315673 47.6219 0.352075 47.1079 0.573658 46.6637L11.3999 25L0.569902 3.33999C0.45733 3.11963 0.389492 2.87916 0.370296 2.63246C0.3511 2.38575 0.380927 2.13769 0.458057 1.90257C0.535188 1.66744 0.658098 1.44991 0.819698 1.26252C0.981298 1.07512 1.17839 0.921567 1.39962 0.810708C1.62085 0.699846 1.86183 0.63387 2.10868 0.616586C2.35552 0.599302 2.60335 0.631051 2.83787 0.71C3.07239 0.788949 3.28896 0.913537 3.4751 1.07658C3.66123 1.23963 3.81326 1.43791 3.9224 1.65999L15.1724 24.16C15.3031 24.4207 15.3711 24.7083 15.3711 25C15.3711 25.2916 15.3031 25.5793 15.1724 25.84L3.92241 48.34C3.69961 48.7836 3.31 49.1207 2.83901 49.2775C2.36802 49.4342 1.8541 49.3978 1.40991 49.1762Z" fill="white" fill-opacity="0.6"/>
</svg>
