<svg width="320" height="42" viewBox="0 0 320 42" fill="none" xmlns="http://www.w3.org/2000/svg">
<path d="M47.4089 22.2353C49.1953 22.2353 51.3167 22.0368 52.4332 21.583C52.9078 21.3845 53.0194 21.2426 53.159 20.7605C53.4381 19.7962 53.7731 17.3288 53.7731 16.9884C53.7731 16.7616 53.7172 16.563 53.5219 16.563C53.2985 16.563 53.2427 16.6765 53.159 17.1303C53.0473 17.6408 52.6845 18.4632 52.2099 19.0021C51.0934 20.3067 49.5861 20.5903 47.1018 20.5903C43.3615 20.5903 38.3092 17.2437 38.3092 10.4937C38.3092 7.74265 38.8395 5.04832 40.8772 3.14811C42.1054 2.01365 43.6964 1.3897 46.1249 1.3897C48.6929 1.3897 50.8701 2.15546 51.7912 3.14811C52.4891 3.8855 52.8519 4.87815 52.8799 5.75735C52.8799 6.15441 52.9357 6.40966 53.159 6.40966C53.4102 6.40966 53.466 6.15441 53.4939 5.72899C53.5498 5.16176 53.5219 3.60189 53.5777 2.66597C53.6335 1.67332 53.7173 1.33298 53.7173 1.10609C53.7173 0.935924 53.6893 0.794118 53.3823 0.765757C52.5449 0.680672 51.5679 0.42542 50.5072 0.283613C49.2232 0.113446 48.1904 0 46.4598 0C42.3008 0 39.649 1.13445 37.6392 3.0063C34.9596 5.5021 34.3734 8.84874 34.3734 10.7773C34.3734 13.5284 35.0991 16.7048 37.8346 19.1439C40.3747 21.3845 43.5848 22.2353 47.4089 22.2353Z" fill="#11345E"/>
<path d="M66.2793 22.1502C72.5597 22.1502 76.3839 17.8109 76.3839 12.2805C76.3839 7.09034 72.6435 3.26155 66.5026 3.26155C59.1614 3.26155 56.3701 8.48004 56.3701 12.7342C56.3701 17.0168 59.2731 22.1502 66.2793 22.1502ZM67.2562 20.8172C62.6227 20.8172 59.9709 16.8466 59.9709 11.9118C59.9709 5.95588 63.0413 4.53781 65.7768 4.53781C69.8522 4.53781 72.7551 8.05462 72.7551 13.188C72.7551 20.1082 68.9589 20.8172 67.2562 20.8172Z" fill="#11345E"/>
<path d="M80.4633 19.4559C79.6259 20.6471 79.1235 21.0158 78.4257 21.2143C78.0628 21.2994 77.6999 21.3277 77.5324 21.3277C77.3091 21.3277 77.1696 21.4412 77.1696 21.583C77.1696 21.7248 77.3091 21.8382 77.5604 21.8382C78.2861 21.8382 79.5701 21.7532 80.1005 21.7532C80.7704 21.7532 82.4173 21.8382 83.0034 21.8382C83.3384 21.8382 83.5059 21.7815 83.5059 21.6113C83.5059 21.4695 83.3384 21.3277 83.1709 21.3277C82.9755 21.2994 82.7522 21.2994 82.5847 21.271C82.3614 21.2143 82.1381 21.0725 82.1102 20.8456C82.0823 20.5903 82.1939 20.2784 82.4452 19.9097L86.0181 14.2941C87.0508 15.9958 88.5582 18.4349 89.8143 20.6471C89.9817 20.959 89.898 21.1576 89.7305 21.2143C89.5072 21.271 89.3956 21.3845 89.3956 21.5263C89.3956 21.6681 89.563 21.7248 90.1492 21.7532C91.9636 21.8382 93.9733 21.8382 95.7039 21.8382C96.011 21.8382 96.2064 21.7532 96.2064 21.583C96.2064 21.4412 96.0389 21.3277 95.8435 21.3277C95.5923 21.2994 95.3132 21.2994 94.9224 21.1859C94.2804 20.9874 93.8896 20.7038 93.4988 20.1649C92.801 19.3424 88.921 13.0179 88.0836 11.7132L92.1031 6.12605C92.9126 4.96324 93.4151 4.39601 94.0012 4.2542C94.2804 4.16912 94.5874 4.14076 94.8386 4.11239C95.0619 4.11239 95.2294 3.97059 95.2294 3.82878C95.2294 3.68697 95.0619 3.60189 94.8107 3.60189C93.8617 3.60189 92.801 3.68697 92.2706 3.68697C91.7682 3.68697 90.6516 3.60189 89.6747 3.60189C89.3118 3.60189 89.2281 3.71534 89.2281 3.85714C89.2281 4.02731 89.4514 4.11239 89.5909 4.11239C89.8142 4.14076 90.0934 4.14076 90.3446 4.22584C90.5958 4.28256 90.7633 4.45273 90.7633 4.65126C90.7633 4.82143 90.7075 5.16176 90.4842 5.5021C90.0655 6.2395 87.9162 9.41597 87.2183 10.437C86.3251 8.93382 85.2365 7.2605 84.2037 5.36029C84.0362 5.07668 83.8966 4.76471 83.8966 4.59454C83.8966 4.42437 83.9804 4.28256 84.2037 4.22584C84.3991 4.16912 84.7061 4.14076 84.8457 4.11239C85.1248 4.08403 85.2365 4.02731 85.2365 3.85714C85.2365 3.68697 85.069 3.60189 84.734 3.60189C83.7571 3.60189 82.2498 3.68697 81.8869 3.68697C80.4633 3.68697 78.6769 3.60189 78.1186 3.60189C77.7837 3.60189 77.6162 3.65861 77.6162 3.82878C77.6162 4.02731 77.8116 4.11239 77.979 4.11239C78.2303 4.14076 78.4536 4.16912 78.8723 4.28256C79.7655 4.53781 80.3238 5.10504 80.9379 6.12605L85.1807 12.9044L80.4633 19.4559Z" fill="#11345E"/>
<path d="M112.927 22.2353C116.751 22.2353 118.509 20.6754 119.431 19.8246C121.831 21.6964 122.948 21.8382 126.13 21.8382C126.325 21.8382 128.112 21.8382 128.307 21.8382C128.921 21.8382 129.116 21.7532 129.116 21.583C129.116 21.3845 128.977 21.3561 128.726 21.3277C127.888 21.271 126.632 20.8739 125.739 20.3351C124.985 19.8813 123.729 19.1155 121.859 17.5557C123.45 15.6555 124.595 13.0179 124.595 10.834C124.595 10.4937 124.315 10.3235 123.645 10.2668C122.082 10.125 120.966 10.0683 120.296 10.0683C120.073 10.0683 119.793 10.125 119.793 10.3519C119.793 10.5221 120.073 10.5788 120.24 10.5788C120.659 10.6071 121.189 10.6639 121.552 11.0042C121.971 11.3729 122.082 11.8834 122.082 12.3088C122.082 14.0389 121.301 15.8824 120.743 16.6765C120.212 16.1943 116.779 13.0462 115.83 11.9401C113.597 9.41597 111.196 7.14706 111.196 4.48109C111.196 2.07038 113.011 1.2479 114.183 1.2479C115.746 1.2479 116.723 1.84349 117.281 2.52416C117.895 3.26155 118.091 4.16912 118.091 4.90651C118.091 5.33193 118.119 5.44538 118.286 5.44538C118.454 5.44538 118.565 5.38866 118.621 4.96324C118.705 4.53781 118.928 2.26891 118.928 1.33298C118.928 0.992646 118.928 0.765757 118.454 0.595587C117.7 0.283613 116.444 0 115.076 0C110.219 0 108.265 2.97794 108.293 5.21849C108.321 6.49475 108.461 7.68592 109.633 9.27416C107.958 10.0966 105.167 12.4506 105.167 15.7689C105.167 18.4065 106.953 22.2353 112.927 22.2353ZM113.988 20.4202C111.001 20.4202 108.517 18.1796 108.517 14.6345C108.517 12.3655 109.41 11.0609 110.359 10.3519C113.038 13.5284 114.797 15.5137 118.342 18.917C117.756 19.4842 116.137 20.4202 113.988 20.4202Z" fill="#11345E"/>
<path d="M143.594 9.41597C143.51 9.41597 143.426 9.35924 143.426 9.21744V8.62185C143.426 4.31092 143.426 3.51681 143.482 2.60924C143.538 1.6166 143.761 1.07773 144.515 0.964285C144.738 0.935924 145.101 0.907563 145.324 0.907563C145.575 0.907563 145.827 0.850839 145.827 0.652311C145.827 0.453781 145.631 0.397059 145.24 0.397059C144.152 0.397059 142.393 0.482142 141.723 0.482142C140.97 0.482142 139.211 0.397059 137.704 0.397059C137.313 0.397059 137.118 0.453781 137.118 0.652311C137.118 0.850839 137.285 0.907563 137.592 0.907563C137.983 0.907563 138.458 0.935924 138.681 0.992646C139.602 1.19118 139.825 1.64496 139.881 2.60924C139.937 3.51681 139.937 4.31092 139.937 8.62185V13.6134C139.937 16.2227 139.937 18.4632 139.797 19.6544C139.686 20.4769 139.546 21.1008 138.988 21.2143C138.737 21.271 138.402 21.3277 137.983 21.3277C137.648 21.3277 137.536 21.4128 137.536 21.5546C137.536 21.7532 137.732 21.8382 138.095 21.8382C139.211 21.8382 140.97 21.7532 141.612 21.7532C142.393 21.7532 144.152 21.8382 145.966 21.8382C146.301 21.8382 146.525 21.7532 146.525 21.5546C146.525 21.4128 146.385 21.3277 146.078 21.3277C145.659 21.3277 145.045 21.271 144.654 21.2143C143.817 21.1008 143.649 20.4769 143.566 19.6828C143.426 18.4632 143.426 16.2227 143.426 13.6134V11.1176C143.426 10.9758 143.51 10.9475 143.594 10.9475H154.256C154.34 10.9475 154.424 11.0042 154.424 11.1176V13.6134C154.424 16.2227 154.424 18.4632 154.284 19.6544C154.173 20.4769 154.033 21.1008 153.475 21.2143C153.224 21.271 152.889 21.3277 152.47 21.3277C152.135 21.3277 152.023 21.4128 152.023 21.5546C152.023 21.7532 152.219 21.8382 152.61 21.8382C153.698 21.8382 155.457 21.7532 156.099 21.7532C156.88 21.7532 158.639 21.8382 160.453 21.8382C160.788 21.8382 161.011 21.7532 161.011 21.5546C161.011 21.4128 160.872 21.3277 160.565 21.3277C160.146 21.3277 159.532 21.271 159.141 21.2143C158.304 21.1008 158.136 20.4769 158.053 19.6828C157.913 18.4632 157.913 16.2227 157.913 13.6134V8.62185C157.913 4.31092 157.913 3.51681 157.969 2.60924C158.025 1.6166 158.248 1.13445 159.002 0.992646C159.337 0.935924 159.588 0.907563 159.811 0.907563C160.146 0.907563 160.314 0.850839 160.314 0.652311C160.314 0.453781 160.118 0.397059 159.727 0.397059C158.639 0.397059 156.88 0.482142 156.21 0.482142C155.457 0.482142 153.698 0.397059 152.191 0.397059C151.8 0.397059 151.605 0.453781 151.605 0.652311C151.605 0.850839 151.772 0.907563 152.079 0.907563C152.47 0.907563 152.945 0.935924 153.168 0.992646C154.089 1.19118 154.312 1.64496 154.368 2.60924C154.424 3.51681 154.424 4.31092 154.424 8.62185V9.21744C154.424 9.35924 154.34 9.41597 154.256 9.41597H143.594Z" fill="#11345E"/>
<path d="M166.175 14.833C166.175 17.187 166.175 19.0021 166.035 20.0231C165.98 20.7038 165.756 21.1292 165.282 21.2426C165.058 21.2994 164.863 21.2994 164.528 21.3277C164.221 21.3277 164.109 21.4695 164.109 21.583C164.109 21.7532 164.277 21.8382 164.612 21.8382C165.589 21.8382 167.264 21.7532 167.738 21.7532C168.324 21.7532 169.915 21.8382 171.562 21.8382C171.841 21.8382 172.037 21.7532 172.037 21.583C172.037 21.4695 171.925 21.3277 171.618 21.3277C171.255 21.2994 170.92 21.2994 170.557 21.2143C169.832 21.1292 169.636 20.6187 169.58 19.9664C169.469 18.9454 169.441 17.1019 169.441 14.833V10.5788C169.441 6.89181 169.441 6.32458 169.525 5.55882C169.58 4.73634 169.776 4.31093 170.446 4.19748C170.725 4.14076 170.836 4.14076 171.088 4.11239C171.339 4.11239 171.478 4.02731 171.478 3.82878C171.478 3.68697 171.339 3.60189 171.004 3.60189C170.055 3.60189 168.408 3.68697 167.85 3.68697C167.236 3.68697 165.561 3.60189 164.584 3.60189C164.193 3.60189 164.026 3.68697 164.026 3.82878C164.026 4.02731 164.165 4.11239 164.416 4.11239C164.723 4.14076 165.031 4.16912 165.282 4.22584C165.812 4.33929 166.063 4.73634 166.119 5.53046C166.175 6.32458 166.175 6.89181 166.175 10.5788V14.833Z" fill="#11345E"/>
<path d="M183.99 5.01996C185.525 5.04832 186.558 5.07668 187.228 5.1334C189.293 5.16176 189.88 5.81408 189.935 6.46639C189.935 6.57983 189.963 6.69328 189.963 6.77836C189.991 7.1187 190.019 7.2605 190.215 7.2605C190.382 7.2605 190.438 7.1187 190.466 6.86344C190.466 6.23949 190.577 4.48109 190.577 3.99895C190.577 3.57353 190.549 3.43172 190.382 3.43172C190.242 3.43172 190.047 3.48844 189.684 3.54517C189.321 3.60189 188.791 3.68697 188.009 3.68697H178.128C177.291 3.68697 176.286 3.63025 175.616 3.54517C175.002 3.48844 174.779 3.26155 174.583 3.26155C174.444 3.26155 174.36 3.43172 174.304 3.77206C174.248 4.08403 173.802 6.09769 173.774 6.60819C173.774 6.89181 173.829 7.03361 173.997 7.03361C174.137 7.03361 174.22 6.92017 174.276 6.75C174.388 6.46639 174.444 6.26786 174.611 5.95588C174.946 5.33193 175.365 5.21849 176.788 5.10504C177.905 5.01996 179.747 5.01996 180.668 5.01996V14.833C180.668 17.0735 180.668 18.8887 180.557 19.9097C180.473 20.6187 180.333 21.1292 179.803 21.2426C179.58 21.2994 179.3 21.2994 178.966 21.3277C178.658 21.3277 178.547 21.4412 178.547 21.5546C178.547 21.7248 178.714 21.8382 179.049 21.8382C179.998 21.8382 181.701 21.7532 182.259 21.7532C182.873 21.7532 184.576 21.8382 186.195 21.8382C186.53 21.8382 186.697 21.7248 186.697 21.5546C186.697 21.4412 186.558 21.3277 186.279 21.3277C185.916 21.2994 185.413 21.271 185.079 21.2143C184.325 21.1292 184.185 20.5903 184.102 19.938C183.99 18.8887 183.99 16.9884 183.99 14.833V5.01996Z" fill="#11345E"/>
<path d="M203.893 22.1502C205.456 22.1502 207.298 22.0084 208.275 21.6113C208.694 21.4412 208.805 21.3277 208.917 20.9023C209.168 20.0231 209.475 17.8676 209.475 17.5557C209.475 17.3571 209.392 17.187 209.224 17.187C209.029 17.187 208.945 17.2721 208.833 17.6975C208.722 18.208 208.443 18.8887 208.024 19.3424C207.075 20.4202 205.847 20.6471 203.669 20.6471C200.152 20.6471 196.049 17.7542 196.049 12.167C196.049 9.78466 196.579 7.54412 198.282 5.98424C199.343 5.04832 200.711 4.56618 202.748 4.56618C205.009 4.56618 206.879 5.19012 207.689 6.06933C208.359 6.75 208.582 7.60084 208.61 8.30987C208.61 8.65021 208.722 8.84874 208.917 8.84874C209.14 8.84874 209.196 8.65021 209.224 8.28151C209.28 7.77101 209.28 6.3813 209.308 5.58718C209.364 4.73634 209.419 4.39601 209.419 4.19748C209.419 4.05567 209.308 3.94223 209.057 3.91387C208.303 3.82878 207.577 3.65861 206.628 3.51681C205.512 3.34664 204.563 3.26155 203.055 3.26155C199.427 3.26155 197.054 4.16912 195.212 5.78571C192.839 7.91282 192.309 10.7773 192.309 12.4223C192.309 14.8046 192.951 17.4706 195.379 19.541C197.668 21.4979 200.543 22.1502 203.893 22.1502Z" fill="#11345E"/>
<path d="M218.239 11.2027C218.155 11.2027 218.071 11.146 218.071 11.0326V10.5221C218.071 6.97689 218.071 6.26786 218.127 5.5021C218.183 4.67962 218.379 4.28256 219.048 4.19748C219.244 4.16912 219.551 4.14076 219.774 4.11239C220.025 4.11239 220.221 4.02731 220.221 3.85714C220.221 3.68697 220.081 3.60189 219.69 3.60189C218.713 3.60189 217.067 3.68697 216.425 3.68697C215.783 3.68697 214.164 3.60189 212.824 3.60189C212.517 3.60189 212.321 3.65861 212.321 3.82878C212.321 3.99895 212.433 4.11239 212.74 4.11239C213.075 4.14076 213.438 4.14076 213.633 4.19748C214.471 4.36765 214.666 4.67962 214.722 5.5021C214.778 6.26786 214.778 6.92017 214.778 10.5788V14.833C214.778 17.0735 214.778 18.8887 214.638 19.8813C214.582 20.5903 214.415 21.1292 213.912 21.2426C213.689 21.2994 213.41 21.2994 213.047 21.3277C212.74 21.3277 212.656 21.4695 212.656 21.583C212.656 21.7532 212.852 21.8382 213.131 21.8382C214.108 21.8382 215.838 21.7532 216.341 21.7532C216.955 21.7532 218.741 21.8382 220.305 21.8382C220.612 21.8382 220.807 21.7532 220.807 21.583C220.807 21.4695 220.667 21.3277 220.388 21.3277C220.053 21.2994 219.551 21.2994 219.188 21.2143C218.462 21.1292 218.267 20.6187 218.211 19.938C218.071 18.8887 218.071 17.2153 218.071 14.9748V12.8193C218.071 12.7059 218.155 12.6775 218.239 12.6775H227.283C227.367 12.6775 227.45 12.7059 227.45 12.8193V14.8897C227.45 17.1019 227.45 18.8887 227.311 19.8813C227.227 20.6187 227.087 21.1292 226.585 21.2426C226.362 21.2994 226.055 21.2994 225.72 21.3277C225.413 21.3277 225.329 21.4695 225.329 21.583C225.329 21.7532 225.468 21.8382 225.831 21.8382C226.864 21.8382 228.455 21.7532 228.986 21.7532C229.628 21.7532 231.358 21.8382 232.977 21.8382C233.256 21.8382 233.452 21.7532 233.452 21.583C233.452 21.4695 233.34 21.3277 233.061 21.3277C232.726 21.2994 232.168 21.2994 231.833 21.2426C231.107 21.1292 230.939 20.6187 230.884 19.9097C230.744 18.8887 230.744 17.0735 230.744 14.833V10.5788C230.744 6.89181 230.744 6.23949 230.8 5.47374C230.856 4.65126 231.051 4.28256 231.721 4.19748C232 4.14076 232.196 4.14076 232.447 4.11239C232.754 4.11239 232.865 3.99895 232.865 3.82878C232.865 3.65861 232.726 3.60189 232.391 3.60189C231.386 3.60189 229.6 3.68697 229.097 3.68697C228.483 3.68697 226.836 3.60189 225.468 3.60189C225.134 3.60189 224.966 3.65861 224.966 3.82878C224.966 3.99895 225.106 4.11239 225.413 4.11239C225.72 4.14076 226.138 4.16912 226.334 4.19748C227.143 4.36765 227.339 4.67962 227.394 5.47374C227.45 6.23949 227.45 6.86345 227.45 10.5221V11.0326C227.45 11.146 227.367 11.2027 227.283 11.2027H218.239Z" fill="#11345E"/>
<path d="M247.534 22.1502C249.097 22.1502 250.94 22.0084 251.917 21.6113C252.335 21.4412 252.447 21.3277 252.559 20.9023C252.81 20.0231 253.117 17.8676 253.117 17.5557C253.117 17.3571 253.033 17.187 252.866 17.187C252.67 17.187 252.587 17.2721 252.475 17.6975C252.363 18.208 252.084 18.8887 251.665 19.3424C250.716 20.4202 249.488 20.6471 247.311 20.6471C243.794 20.6471 239.691 17.7542 239.691 12.167C239.691 9.78466 240.221 7.54412 241.924 5.98424C242.984 5.04832 244.352 4.56618 246.39 4.56618C248.651 4.56618 250.521 5.19012 251.33 6.06933C252 6.75 252.224 7.60084 252.252 8.30987C252.252 8.65021 252.363 8.84874 252.559 8.84874C252.782 8.84874 252.838 8.65021 252.866 8.28151C252.922 7.77101 252.922 6.3813 252.949 5.58718C253.005 4.73634 253.061 4.39601 253.061 4.19748C253.061 4.05567 252.949 3.94223 252.698 3.91387C251.945 3.82878 251.219 3.65861 250.27 3.51681C249.153 3.34664 248.204 3.26155 246.697 3.26155C243.068 3.26155 240.696 4.16912 238.853 5.78571C236.481 7.91282 235.95 10.7773 235.95 12.4223C235.95 14.8046 236.592 17.4706 239.021 19.541C241.31 21.4979 244.185 22.1502 247.534 22.1502Z" fill="#11345E"/>
<path d="M266.442 22.1502C272.722 22.1502 276.547 17.8109 276.547 12.2805C276.547 7.09034 272.806 3.26155 266.665 3.26155C259.324 3.26155 256.533 8.48004 256.533 12.7342C256.533 17.0168 259.436 22.1502 266.442 22.1502ZM267.419 20.8172C262.785 20.8172 260.134 16.8466 260.134 11.9118C260.134 5.95588 263.204 4.53781 265.94 4.53781C270.015 4.53781 272.918 8.05462 272.918 13.188C272.918 20.1082 269.122 20.8172 267.419 20.8172Z" fill="#11345E"/>
<path d="M291.558 22.1502C293.121 22.1502 294.963 22.0084 295.94 21.6113C296.359 21.4412 296.47 21.3277 296.582 20.9023C296.833 20.0231 297.14 17.8676 297.14 17.5557C297.14 17.3571 297.056 17.187 296.889 17.187C296.694 17.187 296.61 17.2721 296.498 17.6975C296.387 18.208 296.107 18.8887 295.689 19.3424C294.74 20.4202 293.511 20.6471 291.334 20.6471C287.817 20.6471 283.714 17.7542 283.714 12.167C283.714 9.78466 284.244 7.54412 285.947 5.98424C287.008 5.04832 288.375 4.56618 290.413 4.56618C292.674 4.56618 294.544 5.19012 295.354 6.06933C296.024 6.75 296.247 7.60084 296.275 8.30987C296.275 8.65021 296.387 8.84874 296.582 8.84874C296.805 8.84874 296.861 8.65021 296.889 8.28151C296.945 7.77101 296.945 6.3813 296.973 5.58718C297.029 4.73634 297.084 4.39601 297.084 4.19748C297.084 4.05567 296.973 3.94223 296.721 3.91387C295.968 3.82878 295.242 3.65861 294.293 3.51681C293.177 3.34664 292.227 3.26155 290.72 3.26155C287.091 3.26155 284.719 4.16912 282.877 5.78571C280.504 7.91282 279.974 10.7773 279.974 12.4223C279.974 14.8046 280.616 17.4706 283.044 19.541C285.333 21.4979 288.208 22.1502 291.558 22.1502Z" fill="#11345E"/>
<path d="M305.681 10.5788C305.681 6.89181 305.681 6.35294 305.708 5.58718C305.764 4.76471 305.96 4.31093 306.658 4.19748C306.965 4.14076 307.104 4.14076 307.327 4.11239C307.551 4.11239 307.718 3.99895 307.718 3.82878C307.718 3.65861 307.579 3.60189 307.216 3.60189C306.378 3.60189 304.536 3.68697 304.034 3.68697C303.503 3.68697 301.801 3.60189 300.544 3.60189C300.154 3.60189 299.986 3.65861 299.986 3.82878C299.986 3.99895 300.126 4.11239 300.405 4.11239C300.74 4.14076 301.019 4.16912 301.354 4.22584C302.136 4.36765 302.331 4.76471 302.387 5.53046C302.443 6.32458 302.443 6.89181 302.443 10.5788V14.833C302.443 17.0735 302.443 18.9454 302.303 19.938C302.219 20.6471 302.136 21.1292 301.494 21.2426C301.242 21.2994 301.047 21.2994 300.712 21.3277C300.405 21.3277 300.293 21.4695 300.293 21.583C300.293 21.7532 300.461 21.8382 300.796 21.8382C301.745 21.8382 303.531 21.7532 304.006 21.7532C304.536 21.7532 306.295 21.8382 307.718 21.8382C307.997 21.8382 308.165 21.7532 308.165 21.583C308.165 21.4695 308.053 21.3277 307.858 21.3277C307.551 21.2994 307.02 21.2994 306.685 21.2426C306.016 21.1292 305.792 20.6471 305.736 19.9664C305.681 18.9454 305.681 16.9884 305.681 14.833V12.6492C307.69 15.145 310.426 18.3498 312.212 20.1649C313.58 21.5546 314.501 21.8382 317.348 21.8382H319.553C319.888 21.8382 320 21.7532 320 21.583C320 21.4412 319.888 21.3561 319.525 21.3277C319.191 21.2994 318.967 21.2994 318.521 21.1576C317.767 20.9307 317.153 20.562 315.115 18.6618C313.915 17.499 309.7 12.9895 308.472 11.3162C309.114 10.6355 312.212 7.40231 313.329 6.23949C314.613 4.96324 315.255 4.65126 316.176 4.36765C316.567 4.2542 316.902 4.16912 317.404 4.11239C317.711 4.08403 317.795 3.91387 317.795 3.82878C317.795 3.68697 317.711 3.60189 317.32 3.60189C316.957 3.60189 315.339 3.68697 314.222 3.68697C313.078 3.68697 312.631 3.60189 311.71 3.60189C311.459 3.60189 311.347 3.71534 311.347 3.82878C311.347 3.97059 311.486 4.08403 311.738 4.11239C312.268 4.2542 312.296 4.39601 312.296 4.56618C312.296 4.87815 311.905 5.41702 310.844 6.63655C309.588 8.05462 306.853 11.0326 305.681 12.0819V10.5788Z" fill="#11345E"/>
<path d="M62.5553 35.9328C62.5553 37.7689 62.5554 39.3456 62.4567 40.1838C62.3778 40.7626 62.2791 41.2017 61.8845 41.2815C61.707 41.3214 61.4702 41.3613 61.1743 41.3613C60.9375 41.3613 60.8586 41.4212 60.8586 41.521C60.8586 41.6607 60.9967 41.7206 61.2532 41.7206C61.6478 41.7206 62.1608 41.6807 62.6145 41.6807C63.0881 41.6607 63.5221 41.6607 63.7391 41.6607C64.2324 41.6607 64.9229 41.7206 65.6726 41.7805C66.4224 41.8403 67.2313 41.9002 67.9415 41.9002C71.5915 41.9002 73.6434 40.4832 74.5509 39.5452C75.6558 38.4076 76.7015 36.4916 76.7015 33.9769C76.7015 31.6019 75.7742 29.9454 74.7877 28.9076C72.6372 26.6324 69.3423 26.6324 66.8761 26.6324C65.6924 26.6324 64.4494 26.6922 63.8378 26.6922C63.2853 26.6922 62.0424 26.6324 60.9967 26.6324C60.7008 26.6324 60.5627 26.6723 60.5627 26.812C60.5627 26.9517 60.681 26.9916 60.8981 26.9916C61.1743 26.9916 61.5097 27.0116 61.6675 27.0515C62.3186 27.1912 62.4764 27.5105 62.5159 28.1891C62.5554 28.8277 62.5553 29.3866 62.5553 32.4202V35.9328ZM65.0215 32.1008C65.0215 30.5242 65.0216 28.7878 65.0413 28.1092C65.0413 27.8897 65.1005 27.7899 65.278 27.7101C65.4359 27.6303 66.1659 27.5704 66.5605 27.5704C68.0994 27.5704 70.3485 27.8099 72.1637 29.5662C73.012 30.3845 74.0577 32.021 74.0577 34.5557C74.0577 36.6113 73.6631 38.4275 72.4004 39.5252C71.2166 40.563 69.875 40.9622 67.8626 40.9622C66.304 40.9622 65.5345 40.5431 65.278 40.1639C65.1202 39.9443 65.0807 39.146 65.061 38.6471C65.0413 38.2679 65.0215 36.7311 65.0215 34.6155V32.1008Z" fill="#97A2CC"/>
<path d="M87.3465 36.791C87.3465 38.2479 87.3465 39.5452 87.2676 40.2437C87.2084 40.8424 87.1098 41.2216 86.7546 41.3015C86.5968 41.3414 86.3798 41.3414 86.143 41.3613C85.9063 41.3613 85.8471 41.4611 85.8471 41.541C85.8471 41.6607 85.9654 41.7206 86.2022 41.7206C87.0308 41.7206 87.7411 41.6607 88.4514 41.6607C90.2073 41.6607 91.687 41.7605 93.4035 41.7605C94.0546 41.7605 94.2124 41.7605 94.3308 41.3214C94.4295 40.9821 94.5676 39.7647 94.5676 39.3256C94.5676 39.146 94.5676 38.9863 94.4295 38.9863C94.2913 38.9863 94.2519 39.0861 94.2124 39.2658C94.0743 39.9842 93.877 40.3235 93.4232 40.5431C92.9892 40.7426 92.2592 40.7426 91.8054 40.7426C89.9903 40.7426 89.7338 40.4832 89.6943 39.3057C89.6746 38.7868 89.6943 37.3897 89.6943 36.8109V35.5137C89.6943 35.4139 89.7141 35.334 89.8127 35.334C90.2468 35.334 91.9041 35.354 92.2592 35.3939C92.9497 35.4538 93.147 35.7132 93.2457 36.0924C93.2851 36.292 93.2851 36.3918 93.3049 36.5515C93.3049 36.6513 93.3641 36.8309 93.4824 36.8309C93.6403 36.8309 93.66 36.6513 93.66 36.5116C93.66 36.3718 93.7192 35.6534 93.7192 35.3141C93.7784 34.4958 93.8573 34.1166 93.8573 33.9968C93.8573 33.8971 93.8178 33.8571 93.7389 33.8571C93.66 33.8571 93.5811 33.917 93.4627 34.0767C93.3049 34.2563 93.0484 34.3162 92.5551 34.3561C92.1211 34.3761 90.227 34.3761 89.8127 34.3761C89.7141 34.3761 89.6943 34.3162 89.6943 34.1964V30.0651C89.6943 29.9454 89.7338 29.8855 89.8127 29.8855C90.2073 29.8855 91.983 29.9254 92.3184 29.9653C93.1668 30.0651 93.3246 30.2447 93.443 30.5641C93.5416 30.7836 93.5416 31.0431 93.5416 31.1229C93.5613 31.3424 93.6008 31.4422 93.7192 31.4422C93.877 31.4422 93.9165 31.2626 93.9165 31.1628C93.9559 30.6439 93.9757 30.3046 93.9954 29.9853C94.0349 29.2668 94.1532 29.0273 94.1532 28.9076C94.1532 28.8277 94.1335 28.7479 94.0349 28.7479C93.9559 28.7479 93.8573 28.8078 93.7586 28.8277C93.6008 28.8477 93.3049 28.8876 92.9695 28.9275C92.6538 28.9475 89.0433 28.9475 88.5106 28.9475C87.6425 28.9475 86.8533 28.8876 86.0246 28.8876C85.7484 28.8876 85.63 28.9275 85.63 29.0473C85.63 29.167 85.7287 29.2269 85.926 29.2269C86.1628 29.2468 86.439 29.2468 86.5968 29.2868C87.1295 29.4065 87.2676 29.6261 87.3071 30.1849C87.3465 30.7437 87.3465 31.2027 87.3465 33.7973V36.791Z" fill="#97A2CC"/>
<path d="M104.603 39.2258C104.583 40.7027 104.504 41.1418 104.011 41.2815C103.774 41.3414 103.478 41.3414 103.261 41.3613C103.084 41.3613 102.985 41.4412 102.985 41.541C102.985 41.7006 103.143 41.7206 103.36 41.7206C104.208 41.7206 105.116 41.6607 105.333 41.6607C105.787 41.6607 106.477 41.7206 107.503 41.7206C107.74 41.7206 107.898 41.6607 107.898 41.521C107.898 41.4212 107.779 41.3613 107.602 41.3613C107.306 41.3414 106.97 41.3414 106.674 41.2416C106.319 41.1218 106.122 40.7027 106.083 39.4055L105.905 32.48C106.378 32.979 108.312 35.0546 110.048 36.6912C111.686 38.2878 113.797 40.3435 114.902 41.3613C115.277 41.7006 115.533 41.9202 115.75 41.9202C115.908 41.9202 116.007 41.7605 116.007 41.3015C116.066 37.749 116.105 33.2983 116.184 30.7437C116.204 29.7857 116.362 29.4464 116.875 29.3067C117.052 29.2668 117.19 29.2668 117.368 29.2468C117.585 29.2468 117.664 29.167 117.664 29.0672C117.664 28.9275 117.506 28.8876 117.289 28.8876C116.46 28.8876 115.75 28.9475 115.533 28.9475C115.099 28.9475 114.211 28.8876 113.343 28.8876C113.106 28.8876 112.909 28.9076 112.909 29.0473C112.909 29.1471 112.988 29.2468 113.205 29.2468C113.442 29.2668 113.836 29.2668 114.093 29.3466C114.566 29.5263 114.704 29.8655 114.724 30.8834L114.882 38.2679C114.566 37.9884 112.357 35.7132 111.074 34.4758C108.253 31.8015 105.944 29.3866 105.629 29.1071C105.333 28.8078 105.175 28.6082 104.997 28.6082C104.8 28.6082 104.741 28.8477 104.741 29.2269C104.741 31.4622 104.642 35.6334 104.603 39.2258Z" fill="#97A2CC"/>
<path d="M133.026 29.8855C134.112 29.9055 134.842 29.9254 135.315 29.9653C136.775 29.9853 137.189 30.4443 137.229 30.9034C137.229 30.9832 137.249 31.063 137.249 31.1229C137.268 31.3624 137.288 31.4622 137.426 31.4622C137.544 31.4622 137.584 31.3624 137.604 31.1828C137.604 30.7437 137.683 29.5063 137.683 29.167C137.683 28.8676 137.663 28.7679 137.544 28.7679C137.446 28.7679 137.308 28.8078 137.051 28.8477C136.795 28.8876 136.42 28.9475 135.867 28.9475H128.883C128.291 28.9475 127.581 28.9076 127.108 28.8477C126.673 28.8078 126.516 28.6481 126.378 28.6481C126.279 28.6481 126.22 28.7679 126.18 29.0074C126.141 29.2269 125.825 30.6439 125.805 31.0032C125.805 31.2027 125.845 31.3025 125.963 31.3025C126.062 31.3025 126.121 31.2227 126.16 31.1029C126.239 30.9034 126.279 30.7637 126.397 30.5441C126.634 30.105 126.93 30.0252 127.936 29.9454C128.725 29.8855 130.028 29.8855 130.679 29.8855V36.791C130.679 38.3676 130.679 39.645 130.6 40.3634C130.54 40.8624 130.442 41.2216 130.067 41.3015C129.909 41.3414 129.712 41.3414 129.475 41.3613C129.258 41.3613 129.179 41.4412 129.179 41.521C129.179 41.6408 129.298 41.7206 129.534 41.7206C130.205 41.7206 131.409 41.6607 131.803 41.6607C132.237 41.6607 133.441 41.7206 134.585 41.7206C134.822 41.7206 134.94 41.6408 134.94 41.521C134.94 41.4412 134.842 41.3613 134.644 41.3613C134.388 41.3414 134.033 41.3214 133.796 41.2815C133.263 41.2216 133.165 40.8424 133.105 40.3834C133.026 39.645 133.026 38.3078 133.026 36.791V29.8855Z" fill="#97A2CC"/>
<path d="M151.397 37.5095C151.476 37.5095 151.535 37.5494 151.555 37.6292L152.896 41.0021C153.014 41.2416 152.876 41.3015 152.699 41.3613C152.6 41.4013 152.521 41.4412 152.521 41.521C152.521 41.6208 152.64 41.6607 152.817 41.6807C154.06 41.7605 156.132 41.7206 156.96 41.7206C157.217 41.7206 157.296 41.6607 157.296 41.541C157.296 41.4412 157.217 41.3613 157 41.3613C156.822 41.3613 156.526 41.3613 156.349 41.3214C155.934 41.2416 155.441 40.9821 154.81 39.4853C153.705 36.9307 150.785 30.125 150.45 29.1471C150.252 28.708 150.154 28.5284 149.996 28.5284C149.779 28.5284 149.582 28.9076 149.226 29.8456L145.044 39.8445C144.59 41.0021 144.314 41.2416 143.071 41.3613C142.933 41.3613 142.834 41.4412 142.834 41.541C142.834 41.6807 142.933 41.7206 143.15 41.7206C144.057 41.7206 145.044 41.6607 145.241 41.6607C145.853 41.6607 146.563 41.7206 147.175 41.7206C147.352 41.7206 147.49 41.6807 147.49 41.541C147.49 41.4611 147.431 41.3813 147.194 41.3813C146.819 41.3813 146.208 41.3613 146.208 40.8624C146.208 40.6628 146.306 40.2437 146.464 39.8246L147.332 37.6492C147.372 37.5494 147.411 37.5095 147.49 37.5095H151.397ZM147.885 36.5116C147.806 36.5116 147.786 36.4716 147.806 36.4118L149.365 32.3403C149.443 32.1408 149.503 32.1807 149.562 32.3403L151.101 36.4118C151.12 36.4716 151.12 36.5116 151.022 36.5116H147.885Z" fill="#97A2CC"/>
<path d="M168.49 33.8372C168.49 31.2027 168.49 30.8235 168.529 30.2847C168.569 29.6859 168.707 29.4065 169.18 29.3267C169.397 29.2668 169.634 29.2668 169.831 29.2468C170.068 29.2468 170.167 29.187 170.167 29.0672C170.167 28.9475 170.068 28.8876 169.792 28.8876C169.121 28.8876 167.701 28.9475 167.326 28.9475C166.813 28.9475 165.747 28.8876 164.919 28.8876C164.642 28.8876 164.504 28.9475 164.504 29.0672C164.504 29.187 164.623 29.2468 164.82 29.2468C165.037 29.2668 165.274 29.2868 165.412 29.3267C165.945 29.4464 166.083 29.7059 166.122 30.2647C166.162 30.8036 166.162 31.2027 166.162 33.7973V36.791C166.162 38.2479 166.162 39.5252 166.083 40.2237C166.024 40.8824 165.905 41.2017 165.491 41.3015C165.353 41.3414 165.155 41.3414 164.938 41.3613C164.741 41.3813 164.642 41.4611 164.642 41.541C164.642 41.6607 164.781 41.7206 165.017 41.7206C165.826 41.7206 166.556 41.6607 167.267 41.6607C169.121 41.6607 170.719 41.7605 172.475 41.7605C173.343 41.7605 173.422 41.7006 173.541 41.3015C173.679 40.8225 173.836 39.4653 173.836 39.2458C173.836 39.0462 173.817 38.9065 173.679 38.9065C173.541 38.9065 173.521 39.0662 173.481 39.2258C173.422 39.645 173.205 40.104 172.968 40.3235C172.515 40.7426 171.844 40.7626 170.936 40.7626C169.555 40.7626 169.121 40.6429 168.845 40.3634C168.49 40.0641 168.49 38.8866 168.49 36.791V33.8372Z" fill="#97A2CC"/>
<path d="M208.633 38.188C208.633 37.1901 208.633 36.3918 208.653 35.7931C208.673 35.0945 208.87 34.7553 209.403 34.6555C209.639 34.6155 209.777 34.5956 209.935 34.5956C210.073 34.5956 210.192 34.5557 210.192 34.4359C210.192 34.2763 210.054 34.2363 209.797 34.2363C209.146 34.2363 208.1 34.2962 207.489 34.2962C206.897 34.2962 205.654 34.2363 204.628 34.2363C204.352 34.2363 204.214 34.2763 204.214 34.4359C204.214 34.5557 204.332 34.5956 204.51 34.5956C204.786 34.5956 205.121 34.6155 205.279 34.6555C205.93 34.7952 206.108 35.1145 206.128 35.7931C206.147 36.3918 206.147 37.1502 206.147 38.1481V40.0242C206.147 40.3634 206.068 40.6229 205.772 40.7626C205.299 40.9821 204.608 40.9821 204.095 40.9821C199.932 40.9821 197.229 37.7689 197.229 33.4779C197.229 31.0231 197.94 29.5263 199.045 28.5882C200.426 27.4307 201.866 27.3508 202.951 27.3508C205.18 27.3508 206.759 28.2689 207.351 28.9076C207.864 29.4664 207.962 30.105 208.022 30.5641C208.041 30.7237 208.081 30.8235 208.219 30.8235C208.377 30.8235 208.436 30.7237 208.436 30.4044C208.436 27.9097 208.574 27.3508 208.574 27.1313C208.574 26.9916 208.535 26.9118 208.298 26.8918C207.844 26.8718 207.153 26.7521 206.739 26.6723C206.345 26.5924 204.608 26.3529 203.247 26.3529C201.59 26.3529 199.834 26.4926 197.94 27.6502C196.144 28.7479 194.507 30.9832 194.507 34.1765C194.507 39.6849 198.788 42 203.622 42C205.161 42 207.094 41.7805 208.377 41.1019C208.613 40.9622 208.633 40.9223 208.633 40.3834V38.188Z" fill="#97A2CC"/>
<path d="M220.1 36.791C220.1 38.3676 220.1 39.645 220.001 40.3435C219.962 40.8624 219.843 41.2216 219.508 41.3015C219.35 41.3414 219.133 41.3414 218.877 41.3613C218.679 41.3613 218.6 41.4611 218.6 41.541C218.6 41.6607 218.719 41.7206 218.936 41.7206C219.626 41.7206 220.83 41.6607 221.126 41.6607C221.382 41.6607 222.763 41.7206 223.809 41.7206C224.026 41.7206 224.144 41.6408 224.144 41.521C224.144 41.4412 224.085 41.3613 223.927 41.3613C223.691 41.3414 223.335 41.3414 223.099 41.2815C222.566 41.2216 222.448 40.8424 222.408 40.3435C222.329 39.645 222.329 38.4674 222.329 36.9307V36.5714C222.329 36.4716 222.388 36.4317 222.467 36.4317L223.868 36.4716C223.986 36.4716 224.085 36.4916 224.144 36.5714C224.401 36.8708 225.131 37.9286 225.841 38.9265C226.749 40.1838 227.4 40.9622 228.09 41.3414C228.583 41.6008 229.077 41.7206 230.221 41.7206H231.878C232.095 41.7206 232.214 41.6607 232.214 41.521C232.214 41.4412 232.135 41.3613 231.977 41.3613C231.839 41.3414 231.701 41.3414 231.523 41.3214C231.208 41.2416 230.556 41.1618 229.609 40.1439C228.583 39.0861 227.36 37.5095 225.9 35.6733C227.617 34.376 228.209 33.2384 228.209 31.9611C228.209 30.8036 227.479 29.9454 226.926 29.5861C226.038 29.0074 224.874 28.8876 223.691 28.8876C223.099 28.8876 221.698 28.9475 221.165 28.9475C220.83 28.9475 219.626 28.8876 218.738 28.8876C218.482 28.8876 218.364 28.9475 218.364 29.0672C218.364 29.187 218.462 29.2468 218.66 29.2468C218.877 29.2668 219.113 29.2868 219.33 29.3267C219.863 29.4265 220.021 29.6859 220.06 30.2847C220.1 30.8235 220.1 31.2027 220.1 33.7973V36.791ZM222.329 30.0851C222.329 29.9454 222.369 29.8855 222.467 29.8456C222.625 29.7857 222.941 29.7658 223.355 29.7658C224.342 29.7658 225.979 30.4044 225.979 32.8193C225.979 34.1765 225.506 34.9149 225.012 35.2742C224.716 35.4937 224.44 35.5735 223.809 35.5735C223.355 35.5735 222.842 35.5137 222.487 35.374C222.369 35.334 222.329 35.2542 222.329 35.0945V30.0851Z" fill="#97A2CC"/>
<path d="M245.464 41.9401C249.904 41.9401 252.607 38.8866 252.607 34.9947C252.607 31.3424 249.963 28.6481 245.622 28.6481C240.433 28.6481 238.46 32.3204 238.46 35.3141C238.46 38.3277 240.512 41.9401 245.464 41.9401ZM246.155 41.0021C242.88 41.0021 241.006 38.208 241.006 34.7353C241.006 30.5441 243.176 29.5462 245.109 29.5462C247.99 29.5462 250.042 32.021 250.042 35.6334C250.042 40.5032 247.359 41.0021 246.155 41.0021Z" fill="#97A2CC"/>
<path d="M265.25 33.7973C265.25 31.3225 265.25 30.8235 265.289 30.2847C265.309 29.7059 265.447 29.4065 265.921 29.3267C266.118 29.2868 266.256 29.2668 266.434 29.2468C266.611 29.2468 266.729 29.187 266.729 29.0672C266.729 28.9475 266.611 28.8876 266.335 28.8876C265.723 28.8876 264.441 28.9475 264.066 28.9475C263.612 28.9475 262.409 28.8876 261.521 28.8876C261.245 28.8876 261.107 28.9275 261.107 29.0473C261.107 29.167 261.225 29.2468 261.422 29.2468C261.659 29.2668 261.975 29.2868 262.132 29.3267C262.665 29.4464 262.784 29.7059 262.823 30.2447C262.862 30.8036 262.862 31.2027 262.862 33.7973V36.292C262.862 38.7668 263.533 40.0042 264.421 40.7626C265.644 41.8403 267.302 41.9401 268.328 41.9401C269.472 41.9401 270.735 41.7405 271.938 40.7426C273.438 39.5053 273.615 37.4895 273.615 35.5935V33.7973C273.615 31.2426 273.635 30.8036 273.674 30.2647C273.714 29.666 273.832 29.4065 274.286 29.3267C274.503 29.2668 274.602 29.2668 274.799 29.2468C275.016 29.2468 275.115 29.187 275.115 29.0672C275.115 28.9475 274.996 28.8876 274.74 28.8876C274.029 28.8876 272.944 28.9475 272.707 28.9475C272.648 28.9475 271.543 28.8876 270.656 28.8876C270.379 28.8876 270.281 28.9475 270.281 29.0672C270.281 29.187 270.379 29.2468 270.577 29.2468C270.813 29.2668 271.07 29.2868 271.208 29.3267C271.78 29.4265 271.879 29.7059 271.918 30.2847C271.938 30.8235 271.978 31.2426 271.978 33.7973V35.9128C271.978 37.6492 271.958 39.2258 270.991 40.1439C270.32 40.8025 269.413 41.0021 268.683 41.0021C268.13 41.0021 267.361 40.9422 266.611 40.3634C265.723 39.6849 265.25 38.667 265.25 36.2122V33.7973Z" fill="#97A2CC"/>
<path d="M284.962 36.791C284.962 38.3676 284.962 39.645 284.864 40.3435C284.805 40.8824 284.706 41.2216 284.37 41.3015C284.193 41.3414 283.996 41.3414 283.759 41.3613C283.542 41.3613 283.463 41.4611 283.463 41.541C283.463 41.6607 283.581 41.7206 283.798 41.7206C284.489 41.7206 285.732 41.6607 286.067 41.6607C286.462 41.6607 287.705 41.7206 288.869 41.7206C289.046 41.7206 289.185 41.6408 289.185 41.521C289.185 41.4412 289.106 41.3613 288.889 41.3613C288.652 41.3414 288.297 41.3414 288.04 41.2815C287.527 41.2216 287.409 40.8624 287.369 40.3634C287.271 39.645 287.271 38.3078 287.271 36.791V30.105C287.271 29.8855 287.33 29.7857 287.429 29.7658C287.567 29.7258 287.803 29.7059 288.06 29.7059C288.494 29.7059 289.224 29.7857 289.836 30.3246C290.743 31.1229 290.763 32.2405 290.763 32.9191C290.763 34.6155 289.54 35.6733 288.474 35.6733C288.139 35.6733 288.001 35.7132 288.001 35.833C288.001 35.9527 288.139 35.9926 288.218 36.0326C288.316 36.0525 288.533 36.0525 288.612 36.0525C291.059 36.0525 292.992 34.3561 292.992 32.1607C292.992 30.9832 292.519 30.3046 292.144 29.9454C291.69 29.5063 290.901 28.8876 288.711 28.8876C287.902 28.8876 286.896 28.9475 286.166 28.9475C285.712 28.9475 284.509 28.8876 283.621 28.8876C283.345 28.8876 283.226 28.9475 283.226 29.0672C283.226 29.187 283.345 29.2468 283.522 29.2468C283.779 29.2668 284.055 29.2868 284.213 29.3267C284.726 29.4265 284.883 29.7059 284.923 30.2447C284.962 30.8036 284.962 31.3624 284.962 33.7973V36.791Z" fill="#97A2CC"/>
<path d="M0 0H13.913V14H0V0Z" fill="#E0E2F3"/>
<path d="M13.913 14H27.8261V28H13.913V14Z" fill="#C5CAE8"/>
<path d="M27.8261 28H41.7391V42H27.8261V28Z" fill="#97A2CC"/>
</svg>
