<svg width="14" height="18" viewBox="0 0 14 18" fill="none" xmlns="http://www.w3.org/2000/svg">
<path fill-rule="evenodd" clip-rule="evenodd" d="M6.40786 17.0884L6.9987 16.5001L6.40786 17.0884ZM6.9987 16.5001L7.5887 17.0884C7.51127 17.1661 7.41926 17.2278 7.31794 17.2699C7.21662 17.312 7.10799 17.3337 6.99828 17.3337C6.88857 17.3337 6.77994 17.312 6.67862 17.2699C6.5773 17.2278 6.48529 17.1661 6.40786 17.0884L6.40286 17.0826L6.3887 17.0684L6.33703 17.0159C6.04327 16.7133 5.75435 16.406 5.47036 16.0942C4.75736 15.313 4.07464 14.5046 3.4237 13.6709C2.68036 12.7126 1.92036 11.6292 1.34286 10.5592C0.777864 9.51008 0.332031 8.37341 0.332031 7.33341C0.332031 3.55091 3.32536 0.666748 6.9987 0.666748C10.672 0.666748 13.6654 3.55091 13.6654 7.33341C13.6654 8.37341 13.2195 9.51008 12.6545 10.5584C12.077 11.6301 11.3179 12.7126 10.5737 13.6709C9.66318 14.8373 8.69067 15.9539 7.66036 17.0159L7.6087 17.0684L7.59453 17.0826L7.58953 17.0876L6.9987 16.5001ZM6.9987 9.83341C7.66174 9.83341 8.29762 9.57002 8.76647 9.10118C9.23531 8.63234 9.4987 7.99646 9.4987 7.33341C9.4987 6.67037 9.23531 6.03449 8.76647 5.56565C8.29762 5.09681 7.66174 4.83341 6.9987 4.83341C6.33566 4.83341 5.69977 5.09681 5.23093 5.56565C4.76209 6.03449 4.4987 6.67037 4.4987 7.33341C4.4987 7.99646 4.76209 8.63234 5.23093 9.10118C5.69977 9.57002 6.33566 9.83341 6.9987 9.83341Z" fill="#EACC95"/>
</svg>
