<svg width="34" height="33" viewBox="0 0 34 33" fill="none" xmlns="http://www.w3.org/2000/svg">
<path d="M32.7295 12.7672C32.5267 12.1184 31.9224 11.6794 31.2428 11.6869H21.7299C21.5041 11.6869 21.3041 11.5415 21.2343 11.3268L18.2953 2.27984C18.0292 1.45844 17.1477 1.00827 16.3263 1.27436C15.8493 1.42887 15.4753 1.80283 15.3208 2.27984L12.3817 11.3268C12.312 11.5415 12.1119 11.6869 11.8862 11.6869H2.37329C1.50987 11.6867 0.809825 12.3865 0.809629 13.2499C0.809564 13.7504 1.04909 14.2208 1.45405 14.515L9.15085 20.106C9.32972 20.2341 9.40794 20.4614 9.34573 20.6724L5.8788 30.2567C5.61205 31.0778 6.0615 31.9598 6.8827 32.2265C7.36063 32.3817 7.88408 32.2977 8.28944 32.0008L16.5016 25.8924C16.6825 25.7607 16.9273 25.7593 17.1098 25.8887L25.3308 32.0045C25.8765 32.4099 26.6235 32.4099 27.1693 32.0045C27.728 31.6059 27.957 30.8866 27.7316 30.2384L24.2761 20.6865C24.2066 20.472 24.2828 20.2371 24.4652 20.1044L32.1615 14.5129C32.7147 14.1197 32.9454 13.4107 32.7295 12.7672Z" fill="#A37D36" stroke="#A37D36"/>
</svg>
