<svg width="80" height="80" viewBox="0 0 80 80" fill="none" xmlns="http://www.w3.org/2000/svg">
<g clip-path="url(#clip0_312_2405)">
<g filter="url(#filter0_d_312_2405)">
<path d="M79.7997 30.0349C79.2926 28.413 77.782 27.3155 76.0829 27.3343H52.3007C51.7363 27.3343 51.2362 26.9708 51.0618 26.434L43.7141 3.81656C43.0489 1.76306 40.8451 0.637628 38.7916 1.30286C37.5991 1.68913 36.6642 2.62403 36.2779 3.81656L28.9302 26.434C28.7558 26.9708 28.2557 27.3343 27.6913 27.3343H3.90914C1.7506 27.3338 0.000488574 29.0832 3.32074e-08 31.2418C-0.000162814 32.4931 0.598625 33.6688 1.61104 34.4044L20.853 48.3819C21.3002 48.7022 21.4958 49.2704 21.3403 49.798L12.6729 73.7587C12.0061 75.8115 13.1297 78.0164 15.1827 78.6831C16.3775 79.0712 17.6861 78.8613 18.6995 78.119L39.23 62.8479C39.6822 62.5188 40.2942 62.5152 40.7503 62.8388L61.3029 78.1282C62.6672 79.1417 64.5348 79.1417 65.8991 78.1282C67.296 77.1317 67.8684 75.3335 67.3048 73.7131L58.6661 49.8332C58.4923 49.2969 58.683 48.7097 59.139 48.378L78.3797 34.3992C79.7627 33.4161 80.3395 31.6437 79.7997 30.0349ZM76.8476 32.2965L57.6082 46.2753C56.2255 47.2796 55.6557 49.0657 56.2012 50.6852L64.8399 74.5638C65.0629 75.2479 64.689 75.9831 64.0049 76.2061C63.6126 76.3339 63.183 76.2683 62.8467 76.0294L42.2941 60.74C40.92 59.7413 39.0582 59.7444 37.6875 60.7478L17.1571 76.0203C16.7047 76.3652 16.0774 76.3652 15.625 76.0203C15.1667 75.7084 14.9684 75.1319 15.1378 74.6041L23.8038 50.6435C24.3305 49.0331 23.7564 47.267 22.3838 46.274L3.14441 32.2965C2.5624 31.8736 2.43326 31.0589 2.85617 30.4769C3.10109 30.1398 3.49241 29.9403 3.90914 29.9398H27.6913C29.3854 29.9426 30.8873 28.8512 31.4081 27.2392L38.7571 4.62168C38.9818 3.93821 39.718 3.5661 40.4015 3.79083C40.7948 3.92013 41.103 4.2284 41.2323 4.62168L48.5813 27.2392C49.1022 28.8522 50.6057 29.9437 52.3007 29.9398H76.0829C76.8023 29.9396 77.3858 30.5228 77.386 31.2423C77.3861 31.6593 77.1865 32.0513 76.8489 32.2965H76.8476Z" fill="url(#paint0_linear_312_2405)"/>
</g>
</g>
<defs>
<filter id="filter0_d_312_2405" x="-4" y="1.11157" width="88" height="85.7769" filterUnits="userSpaceOnUse" color-interpolation-filters="sRGB">
<feFlood flood-opacity="0" result="BackgroundImageFix"/>
<feColorMatrix in="SourceAlpha" type="matrix" values="0 0 0 0 0 0 0 0 0 0 0 0 0 0 0 0 0 0 127 0" result="hardAlpha"/>
<feOffset dy="4"/>
<feGaussianBlur stdDeviation="2"/>
<feComposite in2="hardAlpha" operator="out"/>
<feColorMatrix type="matrix" values="0 0 0 0 0 0 0 0 0 0 0 0 0 0 0 0 0 0 0.45 0"/>
<feBlend mode="normal" in2="BackgroundImageFix" result="effect1_dropShadow_312_2405"/>
<feBlend mode="normal" in="SourceGraphic" in2="effect1_dropShadow_312_2405" result="shape"/>
</filter>
<linearGradient id="paint0_linear_312_2405" x1="0.0532751" y1="1.44708" x2="75.3425" y2="82.8123" gradientUnits="userSpaceOnUse">
<stop stop-color="#E6BD73"/>
<stop offset="1" stop-color="#EACC95"/>
</linearGradient>
<clipPath id="clip0_312_2405">
<rect width="80" height="80" fill="white"/>
</clipPath>
</defs>
</svg>
