<svg width="80" height="80" viewBox="0 0 80 80" fill="none" xmlns="http://www.w3.org/2000/svg">
<g clip-path="url(#clip0_312_2374)">
<g filter="url(#filter0_d_312_2374)">
<path d="M49.4132 61.6948C53.1516 57.3545 56.986 52.6836 60.2096 47.8686C65.3838 40.1397 67.8991 33.6075 67.8991 27.8991C67.8991 12.5155 55.3836 0 40 0C24.6164 0 12.101 12.5155 12.101 27.8991C12.101 33.6075 14.6163 40.1397 19.7905 47.8686C23.0139 52.6836 26.8485 57.3545 30.5869 61.6948C20.6427 62.6777 10.1121 65.4891 10.1121 70.6242C10.1121 73.4442 13.3267 75.8469 19.4088 77.5725C24.9255 79.1378 32.2385 80 40 80C47.7616 80 55.0746 79.1378 60.5914 77.5725C66.6733 75.8469 69.8882 73.4442 69.8882 70.6242C69.888 65.4889 59.3574 62.6777 49.4132 61.6948ZM14.601 27.8991C14.601 13.8939 25.995 2.5 40 2.5C54.005 2.5 65.3991 13.8939 65.3991 27.8991C65.3991 39.7159 52.7821 54.0947 43.5696 64.5938C42.3163 66.0222 41.1167 67.3892 40 68.6891C38.8835 67.3892 37.6839 66.0222 36.4305 64.5938C27.218 54.0947 14.601 39.7159 14.601 27.8991ZM59.9089 75.1675C54.6078 76.6716 47.5374 77.5 40 77.5C32.4627 77.5 25.3922 76.6716 20.0911 75.1675C14.5708 73.6012 12.6121 71.7411 12.6121 70.6242C12.6121 68.5559 18.9724 65.0669 32.6097 64.0259C33.2653 64.7766 33.9141 65.5163 34.5514 66.2425C36.1624 68.0783 37.6839 69.8125 39.0457 71.4225C39.2832 71.7033 39.6322 71.8653 40 71.8653C40.3678 71.8653 40.7169 71.7033 40.9544 71.4225C42.3161 69.8123 43.8377 68.0783 45.4486 66.2425C46.086 65.5163 46.7347 64.7766 47.3903 64.0259C61.0278 65.0667 67.388 68.5559 67.388 70.6242C67.388 71.7412 65.4292 73.6012 59.9089 75.1675ZM53.5577 23.4056C54.9947 21.9606 54.9883 19.6158 53.5432 18.1786C52.0982 16.7417 49.7535 16.7483 48.3142 18.195L36.8761 29.7473L31.688 24.5592C30.9886 23.8597 30.0588 23.4747 29.0697 23.4747C28.0807 23.4747 27.1508 23.8598 26.4514 24.5591C25.7521 25.2584 25.3669 26.1883 25.3669 27.1773C25.3669 28.1664 25.7521 29.0962 26.4514 29.7956L34.2661 37.6105C34.988 38.3322 35.9361 38.6931 36.8844 38.6931C37.8327 38.6931 38.7808 38.3322 39.5025 37.6105C42.5505 34.5623 45.6296 31.4395 48.6072 28.4195C50.2574 26.7458 51.9074 25.0725 53.5577 23.4056ZM37.735 35.8425C37.2661 36.3116 36.5032 36.3116 36.0341 35.8425L28.2194 28.0277C27.9922 27.8006 27.8672 27.4984 27.8672 27.1773C27.8672 26.8563 27.9922 26.5541 28.2196 26.3269C28.4467 26.0997 28.7488 25.9745 29.07 25.9745C29.3913 25.9745 29.6933 26.0997 29.9205 26.327L35.9969 32.4036C36.2313 32.638 36.5492 32.7697 36.8808 32.7697H36.8839C37.2164 32.7689 37.535 32.6356 37.7691 32.3992L50.0891 19.9563C50.5542 19.4888 51.313 19.4864 51.7805 19.9516C52.2481 20.4166 52.2502 21.1753 51.7833 21.6448C50.1297 23.3148 48.4788 24.9895 46.8274 26.6644C43.8527 29.6811 40.7767 32.8008 37.735 35.8425Z" fill="url(#paint0_linear_312_2374)"/>
</g>
</g>
<defs>
<filter id="filter0_d_312_2374" x="6.11206" y="0" width="67.7761" height="88" filterUnits="userSpaceOnUse" color-interpolation-filters="sRGB">
<feFlood flood-opacity="0" result="BackgroundImageFix"/>
<feColorMatrix in="SourceAlpha" type="matrix" values="0 0 0 0 0 0 0 0 0 0 0 0 0 0 0 0 0 0 127 0" result="hardAlpha"/>
<feOffset dy="4"/>
<feGaussianBlur stdDeviation="2"/>
<feComposite in2="hardAlpha" operator="out"/>
<feColorMatrix type="matrix" values="0 0 0 0 0 0 0 0 0 0 0 0 0 0 0 0 0 0 0.45 0"/>
<feBlend mode="normal" in2="BackgroundImageFix" result="effect1_dropShadow_312_2374"/>
<feBlend mode="normal" in="SourceGraphic" in2="effect1_dropShadow_312_2374" result="shape"/>
</filter>
<linearGradient id="paint0_linear_312_2374" x1="10.1519" y1="0.345101" x2="85.6064" y2="59.5815" gradientUnits="userSpaceOnUse">
<stop stop-color="#E6BD73"/>
<stop offset="1" stop-color="#EACC95"/>
</linearGradient>
<clipPath id="clip0_312_2374">
<rect width="80" height="80" fill="white"/>
</clipPath>
</defs>
</svg>
