<svg width="16" height="50" viewBox="0 0 16 50" fill="none" xmlns="http://www.w3.org/2000/svg">
<path fill-rule="evenodd" clip-rule="evenodd" d="M14.5901 0.823764C15.0337 1.04656 15.3708 1.43617 15.5276 1.90716C15.6843 2.37814 15.6479 2.89207 15.4263 3.33626L4.60009 25L15.4301 46.66C15.5427 46.8804 15.6105 47.1208 15.6297 47.3675C15.6489 47.6142 15.6191 47.8623 15.5419 48.0974C15.4648 48.3326 15.3419 48.5501 15.1803 48.7375C15.0187 48.9249 14.8216 49.0784 14.6004 49.1893C14.3791 49.3002 14.1382 49.3661 13.8913 49.3834C13.6445 49.4007 13.3966 49.3689 13.1621 49.29C12.9276 49.2111 12.711 49.0865 12.5249 48.9234C12.3388 48.7604 12.1867 48.5621 12.0776 48.34L0.827594 25.84C0.696938 25.5793 0.628906 25.2917 0.628906 25C0.628906 24.7084 0.696938 24.4207 0.827594 24.16L12.0776 1.66001C12.3004 1.21643 12.69 0.879303 13.161 0.722542C13.632 0.565781 14.1459 0.602182 14.5901 0.823764Z" fill="white" fill-opacity="0.6"/>
</svg>
