<svg width="17" height="14" viewBox="0 0 17 14" fill="none" xmlns="http://www.w3.org/2000/svg">
<path d="M13.9393 0.94095C14.2211 0.672728 14.596 0.524443 14.985 0.527387C15.374 0.53033 15.7466 0.684271 16.0242 0.956725C16.3019 1.22918 16.4628 1.59884 16.4731 1.9877C16.4834 2.37656 16.3422 2.7542 16.0793 3.04095L8.09934 13.021C7.96212 13.1687 7.79651 13.2874 7.6124 13.3697C7.4283 13.452 7.22948 13.4964 7.02784 13.5001C6.8262 13.5038 6.62588 13.4669 6.43885 13.3914C6.25183 13.316 6.08193 13.2036 5.93934 13.061L0.647339 7.76895C0.499965 7.63163 0.381761 7.46603 0.299777 7.28203C0.217793 7.09803 0.173709 6.8994 0.170155 6.698C0.166602 6.49659 0.203652 6.29653 0.279094 6.10976C0.354536 5.92298 0.466825 5.75331 0.609262 5.61087C0.7517 5.46844 0.921367 5.35615 1.10814 5.2807C1.29492 5.20526 1.49498 5.16821 1.69638 5.17177C1.89779 5.17532 2.09642 5.2194 2.28042 5.30139C2.46441 5.38337 2.63001 5.50158 2.76734 5.64895L6.95534 9.83495L13.9013 0.98495C13.9138 0.969552 13.9272 0.954862 13.9413 0.94095H13.9393Z" fill="#29467D"/>
</svg>
