<svg width="23" height="25" viewBox="0 0 23 25" fill="none" xmlns="http://www.w3.org/2000/svg">
<path d="M21.8564 13.7286C22.2675 13.0325 22.5 12.29 22.5 11.3924C22.5 9.32918 20.7554 7.38082 18.4772 7.38082H16.7672C16.9978 6.78035 17.182 6.06223 17.182 5.19926C17.182 1.78704 15.4153 0.290039 12.7162 0.290039C9.82842 0.290039 9.99314 4.74002 9.3525 5.38066C8.28623 6.44693 7.0268 8.49537 6.12937 9.29004H1.5C0.671578 9.29004 0 9.96162 0 10.79V22.04C0 22.8685 0.671578 23.54 1.5 23.54H4.5C5.19811 23.54 5.78475 23.0631 5.95209 22.4174C8.03845 22.4643 9.47053 24.2896 14.2866 24.2896C14.625 24.2896 15 24.29 15.3281 24.29C18.943 24.29 20.5775 22.4421 20.6222 19.8214C21.2465 18.9578 21.5737 17.8001 21.435 16.6813C21.8969 15.8164 22.0755 14.7902 21.8564 13.7286ZM18.9619 16.2519C19.5506 17.2424 19.0209 18.568 18.3084 18.9505C18.6694 21.2371 17.4831 22.0396 15.8184 22.0396H14.0456C10.6875 22.0396 8.51302 20.2668 6 20.2668V11.54H6.51188C7.84125 11.54 9.69844 8.21707 10.9434 6.9716C12.2728 5.64223 11.8298 3.42645 12.7162 2.54004C14.932 2.54004 14.932 4.08598 14.932 5.19926C14.932 7.03535 13.6027 7.85801 13.6027 9.63082H18.4772C19.4667 9.63082 20.2458 10.5172 20.25 11.4036C20.2542 12.2896 19.6491 13.176 19.2061 13.176C19.8384 13.8582 19.9735 15.2964 18.9619 16.2519ZM4.125 20.54C4.125 21.1614 3.62133 21.665 3 21.665C2.37867 21.665 1.875 21.1614 1.875 20.54C1.875 19.9187 2.37867 19.415 3 19.415C3.62133 19.415 4.125 19.9187 4.125 20.54Z" fill="#EACC95"/>
</svg>
