<svg width="24" height="22" viewBox="0 0 24 22" fill="none" xmlns="http://www.w3.org/2000/svg">
<path d="M12.0001 0.790039C5.37193 0.790039 0.00131835 5.1541 0.00131835 10.54C0.00131835 12.7727 0.9346 14.8174 2.48147 16.4557C1.78397 18.3072 0.331318 19.8719 0.307881 19.8893C-0.00266603 20.2174 -0.0846973 20.6979 0.091084 21.108C0.272772 21.5182 0.674115 21.79 1.12505 21.79C4.00787 21.79 6.23912 20.583 7.64537 19.6221C8.95787 20.0463 10.4672 20.29 12.0001 20.29C18.6282 20.29 23.9579 15.9246 23.9579 10.54C23.9579 5.15551 18.6282 0.790039 12.0001 0.790039ZM12.0047 18.04C10.7508 18.04 9.51474 17.8467 8.33068 17.4719L7.26427 17.1379L6.35021 17.7825C5.68224 18.2568 4.76208 18.7846 3.6549 19.1418C4.0006 18.5737 4.32849 17.9348 4.58677 17.2551L5.08458 15.9426L4.11802 14.9175C3.27287 14.0135 2.25333 12.5182 2.25333 10.54C2.25333 6.40332 6.62443 3.04004 12.0033 3.04004C17.3822 3.04004 21.7533 6.40332 21.7533 10.54C21.7533 14.6768 17.3813 18.04 12.0047 18.04Z" fill="#EACC95"/>
</svg>
