<svg width="31" height="31" viewBox="0 0 31 31" fill="none" xmlns="http://www.w3.org/2000/svg">
<path d="M7.66 20.5833C7.89696 20.3625 8.21037 20.2423 8.5342 20.248C8.85804 20.2538 9.16701 20.3849 9.39604 20.614C9.62506 20.843 9.75624 21.152 9.76196 21.4758C9.76767 21.7996 9.64747 22.113 9.42667 22.35L4.26833 27.5067H7.91667C8.21873 27.5067 8.51057 27.6161 8.73822 27.8146C8.96587 28.0132 9.11392 28.2874 9.155 28.5867L9.16667 28.7567C9.16667 29.0882 9.03497 29.4061 8.80055 29.6406C8.56613 29.875 8.24819 30.0067 7.91667 30.0067H1.25C0.918479 30.0067 0.600537 29.875 0.366116 29.6406C0.131696 29.4061 0 29.0882 0 28.7567V22.09C0 21.7585 0.131696 21.4405 0.366116 21.2061C0.600537 20.9717 0.918479 20.84 1.25 20.84C1.58152 20.84 1.89946 20.9717 2.13388 21.2061C2.3683 21.4405 2.5 21.7585 2.5 22.09V25.74L7.66 20.5833ZM22.0917 30.0067C21.7601 30.0067 21.4422 29.875 21.2078 29.6406C20.9734 29.4061 20.8417 29.0882 20.8417 28.7567C20.8417 28.4251 20.9734 28.1072 21.2078 27.8728C21.4422 27.6384 21.7601 27.5067 22.0917 27.5067H25.735L20.5833 22.35C20.3716 22.1384 20.2429 21.8578 20.2206 21.5592C20.1983 21.2607 20.2838 20.9641 20.4617 20.7233L20.5833 20.5833C20.8177 20.3492 21.1354 20.2178 21.4667 20.2178C21.7979 20.2178 22.1156 20.3492 22.35 20.5833L27.5083 25.7433V22.09C27.5083 21.7879 27.6177 21.4961 27.8163 21.2684C28.0148 21.0408 28.2891 20.8927 28.5883 20.8517L28.7583 20.84C29.0899 20.84 29.4078 20.9717 29.6422 21.2061C29.8766 21.4405 30.0083 21.7585 30.0083 22.09V28.7567C30.0083 29.0882 29.8766 29.4061 29.6422 29.6406C29.4078 29.875 29.0899 30.0067 28.7583 30.0067H22.0917ZM7.91667 0C8.24819 0 8.56613 0.131696 8.80055 0.366116C9.03497 0.600537 9.16667 0.918479 9.16667 1.25C9.16667 1.58152 9.03497 1.89946 8.80055 2.13388C8.56613 2.3683 8.24819 2.5 7.91667 2.5H4.27167L9.42667 7.65833C9.63811 7.87019 9.76652 8.15089 9.78854 8.4494C9.81056 8.74791 9.72474 9.04441 9.54667 9.285L9.425 9.42667C9.19062 9.66075 8.87292 9.79223 8.54167 9.79223C8.21042 9.79223 7.89271 9.66075 7.65833 9.42667L2.5 4.26167V7.91667C2.49999 8.21873 2.3906 8.51057 2.19205 8.73822C1.99351 8.96587 1.71926 9.11392 1.42 9.155L1.25 9.16667C0.918479 9.16667 0.600537 9.03497 0.366116 8.80055C0.131696 8.56613 0 8.24819 0 7.91667V1.25C0 0.918479 0.131696 0.600537 0.366116 0.366116C0.600537 0.131696 0.918479 0 1.25 0H7.91667ZM28.7583 0C29.0899 0 29.4078 0.131696 29.6422 0.366116C29.8766 0.600537 30.0083 0.918479 30.0083 1.25V7.91667C30.0083 8.24819 29.8766 8.56613 29.6422 8.80055C29.4078 9.03497 29.0899 9.16667 28.7583 9.16667C28.4268 9.16667 28.1089 9.03497 27.8745 8.80055C27.64 8.56613 27.5083 8.24819 27.5083 7.91667V4.265L22.35 9.425C22.1384 9.6367 21.8578 9.76541 21.5592 9.78774C21.2607 9.81006 20.9641 9.72452 20.7233 9.54667L20.5833 9.425C20.3492 9.19062 20.2178 8.87292 20.2178 8.54167C20.2178 8.21042 20.3492 7.89271 20.5833 7.65833L25.7367 2.5H22.0917C21.7896 2.49999 21.4978 2.3906 21.2701 2.19205C21.0425 1.99351 20.8944 1.71926 20.8533 1.42L20.8417 1.25C20.8417 0.918479 20.9734 0.600537 21.2078 0.366116C21.4422 0.131696 21.7601 0 22.0917 0H28.7583Z" fill="white"/>
</svg>
