<svg width="16" height="15" viewBox="0 0 16 15" fill="none" xmlns="http://www.w3.org/2000/svg">
<path fill-rule="evenodd" clip-rule="evenodd" d="M4.9765 0.210666C5.7585 0.174666 6.00784 0.166666 7.99984 0.166666C9.99184 0.166666 10.2412 0.175333 11.0225 0.210666C11.8038 0.245999 12.3372 0.370666 12.8038 0.551333C13.2925 0.735999 13.7358 1.02467 14.1025 1.398C14.4758 1.764 14.7638 2.20667 14.9478 2.696C15.1292 3.16267 15.2532 3.696 15.2892 4.476C15.3252 5.25933 15.3332 5.50867 15.3332 7.5C15.3332 9.492 15.3245 9.74133 15.2892 10.5233C15.2538 11.3033 15.1292 11.8367 14.9478 12.3033C14.7638 12.7927 14.4754 13.2361 14.1025 13.6027C13.7358 13.976 13.2925 14.264 12.8038 14.448C12.3372 14.6293 11.8038 14.7533 11.0238 14.7893C10.2412 14.8253 9.99184 14.8333 7.99984 14.8333C6.00784 14.8333 5.7585 14.8247 4.9765 14.7893C4.1965 14.754 3.66317 14.6293 3.1965 14.448C2.70712 14.264 2.26372 13.9755 1.89717 13.6027C1.52409 13.2364 1.23538 12.7933 1.05117 12.304C0.870504 11.8373 0.746504 11.304 0.710504 10.524C0.674504 9.74067 0.666504 9.49133 0.666504 7.5C0.666504 5.508 0.675171 5.25867 0.710504 4.47733C0.745837 3.696 0.870504 3.16267 1.05117 2.696C1.23565 2.20672 1.52458 1.76354 1.89784 1.39733C2.26386 1.02433 2.70682 0.735628 3.19584 0.551333C3.6625 0.370666 4.19584 0.246666 4.97584 0.210666H4.9765ZM10.9632 1.53067C10.1898 1.49533 9.95784 1.488 7.99984 1.488C6.04184 1.488 5.80984 1.49533 5.0365 1.53067C4.32117 1.56333 3.93317 1.68267 3.6745 1.78333C3.3325 1.91667 3.08784 2.07467 2.83117 2.33133C2.58787 2.56803 2.40062 2.85619 2.28317 3.17467C2.1825 3.43333 2.06317 3.82133 2.0305 4.53667C1.99517 5.31 1.98784 5.542 1.98784 7.5C1.98784 9.458 1.99517 9.69 2.0305 10.4633C2.06317 11.1787 2.1825 11.5667 2.28317 11.8253C2.4005 12.1433 2.58784 12.432 2.83117 12.6687C3.06784 12.912 3.3565 13.0993 3.6745 13.2167C3.93317 13.3173 4.32117 13.4367 5.0365 13.4693C5.80984 13.5047 6.04117 13.512 7.99984 13.512C9.9585 13.512 10.1898 13.5047 10.9632 13.4693C11.6785 13.4367 12.0665 13.3173 12.3252 13.2167C12.6672 13.0833 12.9118 12.9253 13.1685 12.6687C13.4118 12.432 13.5992 12.1433 13.7165 11.8253C13.8172 11.5667 13.9365 11.1787 13.9692 10.4633C14.0045 9.69 14.0118 9.458 14.0118 7.5C14.0118 5.542 14.0045 5.31 13.9692 4.53667C13.9365 3.82133 13.8172 3.43333 13.7165 3.17467C13.5832 2.83267 13.4252 2.588 13.1685 2.33133C12.9318 2.08805 12.6436 1.90081 12.3252 1.78333C12.0665 1.68267 11.6785 1.56333 10.9632 1.53067ZM7.06317 9.76067C7.58628 9.97842 8.16876 10.0078 8.71112 9.84381C9.25349 9.67982 9.7221 9.33261 10.0369 8.8615C10.3517 8.39038 10.4932 7.82458 10.4372 7.26074C10.3812 6.69689 10.1312 6.16998 9.72984 5.77C9.474 5.51432 9.16465 5.31854 8.82406 5.19676C8.48347 5.07499 8.12012 5.03024 7.76017 5.06574C7.40021 5.10125 7.05261 5.21612 6.74237 5.40209C6.43214 5.58806 6.167 5.8405 5.96604 6.14123C5.76508 6.44197 5.6333 6.78353 5.58018 7.14131C5.52707 7.49909 5.55394 7.86419 5.65886 8.21034C5.76379 8.55649 5.94416 8.87507 6.18698 9.14315C6.42981 9.41122 6.72905 9.62212 7.06317 9.76067ZM5.3345 4.83467C5.68452 4.48465 6.10005 4.207 6.55737 4.01757C7.01469 3.82815 7.50484 3.73065 7.99984 3.73065C8.49484 3.73065 8.98499 3.82815 9.44231 4.01757C9.89962 4.207 10.3152 4.48465 10.6652 4.83467C11.0152 5.18468 11.2928 5.60021 11.4823 6.05753C11.6717 6.51485 11.7692 7.005 11.7692 7.5C11.7692 7.995 11.6717 8.48515 11.4823 8.94247C11.2928 9.39979 11.0152 9.81532 10.6652 10.1653C9.95828 10.8722 8.99953 11.2694 7.99984 11.2694C7.00014 11.2694 6.04139 10.8722 5.3345 10.1653C4.62761 9.45844 4.23049 8.49969 4.23049 7.5C4.23049 6.50031 4.62761 5.54156 5.3345 4.83467ZM12.6052 4.292C12.6919 4.21018 12.7613 4.11179 12.8094 4.00265C12.8574 3.89351 12.883 3.77585 12.8848 3.65662C12.8865 3.53739 12.8643 3.41903 12.8195 3.30854C12.7747 3.19805 12.7081 3.09767 12.6238 3.01336C12.5395 2.92904 12.4391 2.8625 12.3286 2.81768C12.2181 2.77285 12.0998 2.75065 11.9806 2.75239C11.8613 2.75413 11.7437 2.77977 11.6345 2.8278C11.5254 2.87583 11.427 2.94526 11.3452 3.032C11.186 3.20069 11.0989 3.42475 11.1023 3.65662C11.1057 3.88849 11.1993 4.10992 11.3633 4.27389C11.5273 4.43787 11.7487 4.53149 11.9806 4.53487C12.2124 4.53825 12.4365 4.45113 12.6052 4.292Z" fill="white"/>
</svg>
