<svg width="11" height="34" viewBox="0 0 11 34" fill="none" xmlns="http://www.w3.org/2000/svg">
<path fill-rule="evenodd" clip-rule="evenodd" d="M10.0599 0.882428C10.3556 1.03096 10.5804 1.2907 10.6849 1.60469C10.7894 1.91868 10.7651 2.2613 10.6174 2.55743L3.3999 16.9999L10.6199 31.4399C10.6949 31.5868 10.7402 31.7471 10.753 31.9116C10.7658 32.0761 10.7459 32.2415 10.6945 32.3982C10.643 32.555 10.5611 32.7 10.4534 32.8249C10.3456 32.9498 10.2142 33.0522 10.0668 33.1261C9.91927 33.2 9.75861 33.244 9.59405 33.2555C9.42948 33.2671 9.26427 33.2459 9.10792 33.1933C8.95158 33.1406 8.8072 33.0576 8.6831 32.9489C8.55901 32.8402 8.45766 32.708 8.3849 32.5599L0.8849 17.5599C0.797796 17.3861 0.752441 17.1944 0.752441 16.9999C0.752441 16.8055 0.797796 16.6138 0.8849 16.4399L8.3849 1.43993C8.53343 1.14421 8.79317 0.919454 9.10716 0.814947C9.42115 0.710439 9.76377 0.734706 10.0599 0.882428Z" fill="#29467D"/>
</svg>
