<svg width="32" height="32" viewBox="0 0 32 32" fill="none" xmlns="http://www.w3.org/2000/svg">
<path d="M31.9199 12.0142C31.717 11.3654 31.1128 10.9264 30.4332 10.9339H20.9203C20.6945 10.9339 20.4945 10.7885 20.4247 10.5738L17.4857 1.52682C17.2196 0.705421 16.338 0.255247 15.5166 0.521338C15.0396 0.675847 14.6657 1.04981 14.5112 1.52682L11.5721 10.5738C11.5023 10.7885 11.3023 10.9339 11.0765 10.9339H1.56366C0.700242 10.9337 0.00019543 11.6335 1.3283e-08 12.4969C-6.51255e-05 12.9974 0.23945 13.4677 0.644418 13.762L8.34121 19.353C8.52008 19.4811 8.59832 19.7084 8.53611 19.9194L5.06916 29.5037C4.80242 30.3248 5.25188 31.2068 6.07308 31.4735C6.551 31.6287 7.07446 31.5447 7.47982 31.2478L15.692 25.1394C15.8729 25.0077 16.1177 25.0063 16.3001 25.1357L24.5212 31.2515C25.0669 31.6569 25.8139 31.6569 26.3596 31.2515C26.9184 30.8529 27.1474 30.1336 26.9219 29.4854L23.4664 19.9335C23.3969 19.719 23.4732 19.4841 23.6556 19.3514L31.3519 13.7599C31.9051 13.3666 32.1358 12.6577 31.9199 12.0142ZM30.739 12.9188L23.0433 18.5103C22.4902 18.912 22.2623 19.6265 22.4805 20.2743L25.936 29.8257C26.0251 30.0994 25.8756 30.3935 25.6019 30.4826C25.445 30.5338 25.2732 30.5075 25.1387 30.412L16.9176 24.2962C16.368 23.8967 15.6233 23.8979 15.075 24.2993L6.86282 30.4083C6.68187 30.5463 6.43095 30.5463 6.25 30.4083C6.0667 30.2836 5.98736 30.053 6.0551 29.8419L9.52153 20.2576C9.73219 19.6134 9.50257 18.907 8.95352 18.5098L1.25776 12.9188C1.02496 12.7496 0.973303 12.4238 1.14247 12.1909C1.24044 12.0561 1.39697 11.9763 1.56366 11.9761H11.0765C11.7542 11.9772 12.3549 11.5407 12.5632 10.8959L15.5028 1.84887C15.5927 1.57548 15.8872 1.42664 16.1606 1.51653C16.3179 1.56825 16.4412 1.69156 16.4929 1.84887L19.4325 10.8959C19.6409 11.5411 20.2423 11.9777 20.9203 11.9761H30.4332C30.7209 11.9761 30.9543 12.2093 30.9544 12.4971C30.9545 12.6639 30.8746 12.8207 30.7396 12.9188H30.739Z" fill="#A37D36"/>
</svg>
