<?xml version="1.0" encoding="utf-8"?>
<!-- Generator: Adobe Illustrator 17.1.0, SVG Export Plug-In . SVG Version: 6.00 Build 0)  -->
<!DOCTYPE svg PUBLIC "-//W3C//DTD SVG 1.1//EN" "http://www.w3.org/Graphics/SVG/1.1/DTD/svg11.dtd">
<svg version="1.1" id="Layer_1" xmlns="http://www.w3.org/2000/svg" xmlns:xlink="http://www.w3.org/1999/xlink" x="0px" y="0px"
	 viewBox="0 0 32 32" enable-background="new 0 0 32 32" xml:space="preserve">
<path fill="#A37D34" d="M31.9,11.8c-0.2-0.7-0.8-1.1-1.5-1.1h-9.5c-0.2,0-0.4-0.1-0.5-0.4l-2.9-9.3c-0.3-0.8-1.1-1.3-2-1
	c-0.5,0.2-0.9,0.5-1,1l-2.9,9.3c-0.1,0.2-0.3,0.4-0.5,0.4H1.6c-0.9,0-1.6,0.7-1.6,1.6c0,0.5,0.2,1,0.6,1.3l7.7,5.7
	c0.2,0.1,0.3,0.4,0.2,0.6l-3.5,9.8c-0.3,0.8,0.2,1.7,1,2c0.5,0.2,1,0.1,1.4-0.2l8.2-6.2c0.2-0.1,0.4-0.1,0.6,0l8.2,6.3
	c0.5,0.4,1.3,0.4,1.8,0c0.6-0.4,0.8-1.1,0.6-1.8l-3.5-9.8c-0.1-0.2,0-0.5,0.2-0.6l7.7-5.7C31.9,13.2,32.1,12.5,31.9,11.8z
	 M20.4,11.6L7.9,24.9c-0.6,0.4,9.8-0.4,10,0.2l7.1,5.1c0.1,0.3,0.9,0,0.6,0.1c0.4-2-0.3-2-0.4-2.1l-8.2-3.7c-0.5-0.4-1.3-0.4-1.8,0
	l-6.6,2.7c-0.2,0.1-1.9,3.2-2.1,3.1c-0.2-0.1,1.4,0.1,1.4-0.1l7.3-5.7c0.2-0.7,8.6-1.9,8-2.3L1.6,11.8C1.3,11.6,1,12.2,1.1,12
	c0.1-0.1,0.3-0.2,0.4-0.2L13.6,18c0.7,0,6.1-0.5,6.3-1.1L15.5,1.4c0.1-0.3,0.9-0.3,0.7-0.3c-0.8-0.1-0.8,0.3-0.8,0.5l4.5,15.3
	c0.2,0.7,0.3-5.1,1-5.1l5.9,3.3c0.3,0,4.2-3.1,4.2-2.8c-0.2-0.3-1.3-0.9-1,0L20.4,11.6z"/>
</svg>
