<svg width="11" height="34" viewBox="0 0 11 34" fill="none" xmlns="http://www.w3.org/2000/svg">
<path fill-rule="evenodd" clip-rule="evenodd" d="M0.9401 33.1176C0.64438 32.969 0.419627 32.7093 0.315119 32.3953C0.210611 32.0813 0.234879 31.7387 0.382601 31.4426L7.6001 17.0001L0.380098 2.56007C0.30505 2.41317 0.259824 2.25286 0.247027 2.08839C0.234229 1.92392 0.254114 1.75854 0.305534 1.60179C0.356955 1.44504 0.438894 1.30002 0.546628 1.17509C0.654362 1.05016 0.785758 0.947793 0.933243 0.873883C1.08073 0.799977 1.24138 0.755994 1.40595 0.744469C1.57051 0.732949 1.73573 0.754113 1.89207 0.806744C2.04842 0.85938 2.1928 0.942437 2.31689 1.05114C2.44099 1.15983 2.54233 1.29202 2.6151 1.44007L10.1151 16.4401C10.2022 16.6139 10.2476 16.8056 10.2476 17.0001C10.2476 17.1945 10.2022 17.3862 10.1151 17.5601L2.6151 32.5601C2.46657 32.8558 2.20683 33.0805 1.89284 33.1851C1.57885 33.2896 1.23623 33.2653 0.9401 33.1176Z" fill="#A37D36"/>
</svg>
