<svg width="24" height="24" viewBox="0 0 24 24" fill="none" xmlns="http://www.w3.org/2000/svg">
<g clip-path="url(#clip0_193_4264)">
<path d="M23.9399 9.0105C23.7878 8.52391 23.3346 8.19468 22.8249 8.2003H15.6902C15.5209 8.2003 15.3709 8.09126 15.3185 7.93024L13.1142 1.14499C12.9147 0.528943 12.2535 0.191313 11.6375 0.390882C11.2797 0.506764 10.9992 0.787235 10.8834 1.14499L8.67907 7.93024C8.62675 8.09126 8.47672 8.2003 8.30739 8.2003H1.17274C0.525181 8.20015 0.000146572 8.72499 9.96223e-09 9.37255C-4.88441e-05 9.74795 0.179588 10.1007 0.483313 10.3213L6.25591 14.5146C6.39006 14.6107 6.44874 14.7811 6.40208 14.9394L3.80187 22.1276C3.60181 22.7435 3.93891 23.405 4.55481 23.605C4.91325 23.7214 5.30584 23.6584 5.60986 23.4357L11.769 18.8544C11.9047 18.7557 12.0883 18.7546 12.2251 18.8517L18.3909 23.4385C18.8002 23.7425 19.3604 23.7425 19.7697 23.4385C20.1888 23.1395 20.3605 22.6001 20.1914 22.1139L17.5998 14.95C17.5477 14.7891 17.6049 14.6129 17.7417 14.5134L23.5139 10.3198C23.9288 10.0249 24.1019 9.49313 23.9399 9.0105ZM23.0543 9.68898L17.2825 13.8826C16.8676 14.1839 16.6967 14.7197 16.8604 15.2056L19.452 22.3692C19.5189 22.5744 19.4067 22.795 19.2015 22.8618C19.0838 22.9002 18.9549 22.8805 18.854 22.8088L12.6882 18.222C12.276 17.9224 11.7175 17.9233 11.3062 18.2244L5.14712 22.8061C5.0114 22.9096 4.82322 22.9096 4.6875 22.8061C4.55002 22.7125 4.49052 22.5396 4.54133 22.3813L7.14115 15.1931C7.29914 14.71 7.12693 14.1801 6.71514 13.8822L0.943323 9.68898C0.768719 9.56211 0.729977 9.31769 0.856851 9.14309C0.930328 9.04196 1.04772 8.98211 1.17274 8.98197H8.30739C8.81562 8.9828 9.2662 8.65538 9.42244 8.17177L11.6271 1.38653C11.6945 1.18149 11.9154 1.06986 12.1205 1.13727C12.2384 1.17606 12.3309 1.26855 12.3697 1.38653L14.5744 8.17177C14.7307 8.65567 15.1817 8.98314 15.6902 8.98197H22.8249C23.0407 8.98192 23.2157 9.15686 23.2158 9.3727C23.2158 9.49782 23.1559 9.61541 23.0547 9.68898H23.0543Z" fill="#EACC95"/>
</g>
<defs>
<clipPath id="clip0_193_4264">
<rect width="24" height="24" fill="white"/>
</clipPath>
</defs>
</svg>
