<svg width="16" height="13" viewBox="0 0 16 13" fill="none" xmlns="http://www.w3.org/2000/svg">
<path d="M15.7618 1.79133C15.2052 2.038 14.6072 2.20467 13.9785 2.28C14.6272 1.89186 15.1125 1.28098 15.3438 0.561333C14.7344 0.923325 14.0674 1.17813 13.3718 1.31467C12.9041 0.815243 12.2846 0.484217 11.6094 0.372982C10.9342 0.261747 10.2412 0.376527 9.638 0.699501C9.03476 1.02248 8.55503 1.53557 8.27328 2.15913C7.99153 2.7827 7.92354 3.48183 8.07984 4.148C6.84497 4.086 5.63693 3.76503 4.53413 3.20594C3.43133 2.64684 2.45841 1.86211 1.67851 0.902666C1.41184 1.36267 1.25851 1.896 1.25851 2.464C1.25821 2.97533 1.38413 3.47883 1.6251 3.92982C1.86606 4.38081 2.21462 4.76536 2.63985 5.04933C2.1467 5.03364 1.66443 4.90039 1.23318 4.66067V4.70066C1.23313 5.41783 1.4812 6.11292 1.9353 6.668C2.3894 7.22307 3.02156 7.60395 3.72451 7.746C3.26703 7.86981 2.7874 7.88805 2.32185 7.79933C2.52018 8.41641 2.90651 8.95602 3.42676 9.34262C3.947 9.72922 4.57512 9.94345 5.22318 9.95533C4.12307 10.8189 2.76444 11.2874 1.36585 11.2853C1.1181 11.2854 0.870563 11.2709 0.624512 11.242C2.04416 12.1548 3.69674 12.6392 5.38451 12.6373C11.0978 12.6373 14.2212 7.90533 14.2212 3.80133C14.2212 3.668 14.2178 3.53333 14.2118 3.4C14.8194 2.96065 15.3438 2.4166 15.7605 1.79333L15.7618 1.79133Z" fill="white"/>
</svg>
