<svg width="80" height="80" viewBox="0 0 80 80" fill="none" xmlns="http://www.w3.org/2000/svg">
<g clip-path="url(#clip0_312_2360)">
<g filter="url(#filter0_d_312_2360)">
<path d="M65.6712 2.75567C62.969 0.533452 59.5734 0.266786 56.6223 2.06234C55.9112 2.48901 53.9912 3.0579 51.7868 3.6979C49.0845 4.4979 45.7423 5.47567 42.649 6.75567C36.089 6.59567 25.8845 3.55567 23.3956 2.06234C20.4268 0.284563 17.049 0.533452 14.3468 2.75567C10.169 6.18679 8.30231 11.1646 8.64009 17.9557C8.92453 23.7335 10.7734 30.0979 12.409 35.7157C13.2801 38.6846 14.0979 41.4935 14.6312 44.0357C14.7201 44.4446 15.0756 44.7468 15.5023 44.7468H22.4001C21.6001 45.6535 21.1201 46.8446 21.1201 48.1601C21.1201 50.8801 23.2356 53.1201 25.9023 53.3335C25.1023 54.2401 24.6045 55.449 24.6045 56.7646C24.6045 59.289 26.4001 61.3868 28.7823 61.849C27.929 62.7735 27.4134 64.0001 27.4134 65.3512C27.4134 67.7157 28.9956 69.7068 31.1468 70.329C30.2401 71.2712 29.6712 72.5335 29.6712 73.9379C29.6712 76.8001 32.0001 79.129 34.8623 79.129H45.209C48.0712 79.129 50.4001 76.8001 50.4001 73.9379C50.4001 72.5335 49.8312 71.2535 48.9245 70.329C51.0756 69.7068 52.6579 67.6979 52.6579 65.3512C52.6579 64.0001 52.1423 62.7735 51.289 61.849C53.6712 61.3868 55.4668 59.2712 55.4668 56.7646C55.4668 55.449 54.969 54.2579 54.169 53.3335C56.8356 53.1201 58.9512 50.8801 58.9512 48.1601C58.9512 46.8623 58.4712 45.6712 57.6712 44.7468H64.5334C64.9601 44.7468 65.3156 44.4623 65.4045 44.0357C65.9556 41.5112 66.7734 38.7023 67.6268 35.7157C69.2623 30.0979 71.1112 23.7335 71.3956 17.9557C71.7334 11.1468 69.849 6.18679 65.6712 2.75567ZM22.8623 48.1423C22.8623 46.2579 24.3912 44.729 26.2756 44.729H39.1112V51.5557H29.7423H26.2579C24.3912 51.5379 22.8623 50.009 22.8623 48.1423ZM26.3468 56.729C26.3468 54.8446 27.8756 53.3157 29.7601 53.3157H39.1112V60.1423H32.5512H29.7423C27.8756 60.1423 26.3468 58.6135 26.3468 56.729ZM29.1556 65.3335C29.1556 63.449 30.6845 61.9201 32.569 61.9201H39.1112V68.7468H34.8268H32.569C30.6845 68.7468 29.1556 67.2179 29.1556 65.3335ZM31.4134 73.9379C31.4134 72.0535 32.9423 70.5246 34.8268 70.5246H39.1112V77.3335H34.8268C32.9423 77.3335 31.4134 75.8046 31.4134 73.9379ZM45.1734 77.3335H40.889V70.5068H45.1734C47.0579 70.5068 48.5868 72.0357 48.5868 73.9201C48.5868 75.8046 47.0579 77.3335 45.1734 77.3335ZM47.449 68.7468H45.1912H40.889V61.9201H47.449C49.3334 61.9201 50.8623 63.449 50.8623 65.3335C50.8445 67.2179 49.3156 68.7468 47.449 68.7468ZM50.2579 60.1423H47.449H40.889V53.3157H50.2579C52.1423 53.3157 53.6712 54.8446 53.6712 56.729C53.6534 58.6135 52.1245 60.1423 50.2579 60.1423ZM57.1379 48.1423C57.1379 50.0268 55.609 51.5557 53.7245 51.5557H50.2401H40.889V44.729H53.7423C55.609 44.729 57.1379 46.2579 57.1379 48.1423ZM65.9201 35.2179C65.1201 37.9557 64.3734 40.5512 63.8223 42.9512H53.7423H26.2756H16.1779C15.6268 40.5512 14.8801 37.9557 14.0801 35.2179C10.7912 23.8757 7.05787 11.0401 15.449 4.12456C17.5468 2.40012 20.1601 2.18679 22.4534 3.57345C24.9601 5.08456 33.0312 7.50234 39.4668 8.28456C38.809 8.64012 38.169 9.01345 37.5645 9.36901C35.2356 10.7023 33.2268 11.8757 31.3956 11.8757C31.3779 11.8757 31.3423 11.8757 31.3245 11.8757C30.8268 11.8579 30.4356 12.2668 30.4179 12.7468C30.4179 13.2446 30.809 13.6357 31.289 13.6535C33.6356 13.689 35.8579 12.409 38.4534 10.9157C39.929 10.0623 41.4401 9.19123 43.129 8.48012C43.1468 8.48012 43.1468 8.46234 43.1645 8.46234C46.2045 7.18234 49.5823 6.20456 52.2845 5.40456C54.809 4.6579 56.6401 4.12456 57.5468 3.57345C59.8401 2.18679 62.4534 2.40012 64.5512 4.12456C72.9423 11.0223 69.209 23.8757 65.9201 35.2179ZM59.8045 10.5957C59.9645 10.9157 63.769 18.5779 59.6979 26.7023C59.5379 27.0223 59.2356 27.2001 58.8979 27.2001C58.7556 27.2001 58.6312 27.1646 58.5068 27.1112C58.0623 26.8979 57.8845 26.3646 58.1156 25.9201C61.7601 18.6135 58.2579 11.4846 58.2223 11.4135C58.009 10.969 58.169 10.4357 58.6134 10.2223C59.0401 9.97345 59.5734 10.1512 59.8045 10.5957Z" fill="url(#paint0_linear_312_2360)"/>
</g>
</g>
<defs>
<filter id="filter0_d_312_2360" x="4.60132" y="0.880859" width="70.8328" height="86.248" filterUnits="userSpaceOnUse" color-interpolation-filters="sRGB">
<feFlood flood-opacity="0" result="BackgroundImageFix"/>
<feColorMatrix in="SourceAlpha" type="matrix" values="0 0 0 0 0 0 0 0 0 0 0 0 0 0 0 0 0 0 127 0" result="hardAlpha"/>
<feOffset dy="4"/>
<feGaussianBlur stdDeviation="2"/>
<feComposite in2="hardAlpha" operator="out"/>
<feColorMatrix type="matrix" values="0 0 0 0 0 0 0 0 0 0 0 0 0 0 0 0 0 0 0.45 0"/>
<feBlend mode="normal" in2="BackgroundImageFix" result="effect1_dropShadow_312_2360"/>
<feBlend mode="normal" in="SourceGraphic" in2="effect1_dropShadow_312_2360" result="shape"/>
</filter>
<linearGradient id="paint0_linear_312_2360" x1="8.64316" y1="1.2184" x2="83.5324" y2="64.401" gradientUnits="userSpaceOnUse">
<stop stop-color="#E6BD73"/>
<stop offset="1" stop-color="#EACC95"/>
</linearGradient>
<clipPath id="clip0_312_2360">
<rect width="80" height="80" fill="white"/>
</clipPath>
</defs>
</svg>
