<svg width="80" height="80" viewBox="0 0 80 80" fill="none" xmlns="http://www.w3.org/2000/svg">
<g clip-path="url(#clip0_312_2346)">
<g filter="url(#filter0_d_312_2346)">
<path d="M76.5868 26.3798H44.6192V2.32916C44.6192 1.74182 44.1433 1.26587 43.5559 1.26587H3.41314C2.8258 1.26587 2.34985 1.74182 2.34985 2.32916V40.913C2.34985 41.5003 2.8258 41.9763 3.41314 41.9763H16.1478L22.564 53.0887C22.7539 53.4178 23.1048 53.6203 23.485 53.6203C23.8648 53.6203 24.2157 53.4178 24.4061 53.0887L30.8223 41.9763H35.3818V66.0269C35.3818 66.6142 35.8577 67.0902 36.445 67.0902H49.1797L55.5954 78.2026C55.7853 78.5317 56.1362 78.7342 56.5164 78.7342C56.8967 78.7342 57.2476 78.5317 57.4375 78.2026L63.8531 67.0902H76.5878C77.1752 67.0902 77.6511 66.6142 77.6511 66.0269V27.4431C77.6501 26.8557 77.1742 26.3798 76.5868 26.3798ZM35.3807 27.4431V39.8497H30.2076C29.8278 39.8497 29.4764 40.0522 29.2866 40.3813L23.4845 50.4304L17.6825 40.3813C17.4926 40.0522 17.1418 39.8497 16.7615 39.8497H4.47644V3.39245H42.4926V26.3798H36.444C35.8567 26.3798 35.3807 26.8557 35.3807 27.4431ZM75.5235 64.9636H63.2385C62.8587 64.9636 62.5073 65.1661 62.3175 65.4952L56.5154 75.5443L50.7134 65.4952C50.5235 65.1661 50.1726 64.9636 49.7924 64.9636H37.5073V28.5064H75.5235V64.9636ZM49.3058 56.2709C49.4349 56.3221 49.5676 56.3464 49.6987 56.3464C50.1215 56.3464 50.521 56.0927 50.6871 55.676L52.8871 50.1459H60.1443L62.3443 55.676C62.5099 56.0927 62.9099 56.3464 63.3326 56.3464C63.4633 56.3464 63.5964 56.3221 63.7256 56.2709C64.2714 56.0537 64.5377 55.4355 64.3205 54.8897L61.8466 48.6714C61.8461 48.6699 61.8456 48.6689 61.845 48.6674L57.519 37.794C57.3514 37.3727 56.9443 37.119 56.5164 37.1246C56.0881 37.1185 55.6805 37.3722 55.5129 37.794L51.1868 48.6674C51.1863 48.6689 51.1858 48.6699 51.1853 48.6714L48.7114 54.8897C48.4937 55.4355 48.76 56.0537 49.3058 56.2709ZM56.5154 41.0259L59.2977 48.0193H53.7326L56.5154 41.0259ZM28.2324 27.9747C29.3377 26.7398 30.0106 25.1104 30.0106 23.3266V18.0593C30.0106 14.2112 26.88 11.0811 23.0324 11.0811C19.1843 11.0811 16.0542 14.2117 16.0542 18.0593V23.3266C16.0542 27.1747 19.1848 30.3049 23.0324 30.3049C24.3276 30.3049 25.5418 29.9494 26.5823 29.3322L28.5995 31.3494C28.8071 31.557 29.079 31.6608 29.3514 31.6608C29.6238 31.6608 29.8957 31.557 30.1033 31.3494C30.5185 30.9342 30.5185 30.2608 30.1033 29.8456L28.2324 27.9747ZM27.8845 23.3266C27.8845 24.5241 27.4481 25.6213 26.7266 26.4689L24.8699 24.6122C24.4547 24.197 23.7812 24.197 23.3661 24.6122C22.9509 25.0274 22.9509 25.7008 23.3661 26.116L25.0081 27.758C24.4045 28.0284 23.7357 28.1788 23.0329 28.1788C20.3575 28.1788 18.1812 26.0021 18.1812 23.3271V18.0593C18.1812 15.3838 20.358 13.2076 23.0329 13.2076C25.7083 13.2076 27.8845 15.3844 27.8845 18.0593V23.3266Z" fill="url(#paint0_linear_312_2346)"/>
</g>
</g>
<defs>
<filter id="filter0_d_312_2346" x="-1.65015" y="1.26587" width="83.3013" height="85.4683" filterUnits="userSpaceOnUse" color-interpolation-filters="sRGB">
<feFlood flood-opacity="0" result="BackgroundImageFix"/>
<feColorMatrix in="SourceAlpha" type="matrix" values="0 0 0 0 0 0 0 0 0 0 0 0 0 0 0 0 0 0 127 0" result="hardAlpha"/>
<feOffset dy="4"/>
<feGaussianBlur stdDeviation="2"/>
<feComposite in2="hardAlpha" operator="out"/>
<feColorMatrix type="matrix" values="0 0 0 0 0 0 0 0 0 0 0 0 0 0 0 0 0 0 0.45 0"/>
<feBlend mode="normal" in2="BackgroundImageFix" result="effect1_dropShadow_312_2346"/>
<feBlend mode="normal" in="SourceGraphic" in2="effect1_dropShadow_312_2346" result="shape"/>
</filter>
<linearGradient id="paint0_linear_312_2346" x1="2.4" y1="1.60005" x2="77.6" y2="78.4" gradientUnits="userSpaceOnUse">
<stop stop-color="#E6BD73"/>
<stop offset="1" stop-color="#EACC95"/>
</linearGradient>
<clipPath id="clip0_312_2346">
<rect width="80" height="80" fill="white"/>
</clipPath>
</defs>
</svg>
