<svg width="82" height="88" viewBox="0 0 82 88" fill="none" xmlns="http://www.w3.org/2000/svg">
<g clip-path="url(#clip0_312_2388)" filter="url(#filter0_d_312_2388)">
<path d="M46.479 8.41474C45.7555 8.27741 45.0578 8.75275 44.9205 9.47609C44.7831 10.1996 45.2585 10.8973 45.9818 11.0346C46.014 11.0408 46.0463 11.0456 46.079 11.0493C64.2741 13.8528 76.7515 30.8756 73.948 49.0706C71.1444 67.2656 54.122 79.7431 35.9268 76.9397C19.6711 74.435 7.67202 60.4481 7.66902 44.0007C7.58585 27.5602 19.5671 13.5435 35.8202 11.0668C36.548 10.9535 37.0462 10.2713 36.9328 9.54343C36.8195 8.81558 36.1373 8.31741 35.4095 8.43074C15.7683 11.52 2.35026 29.9464 5.43948 49.5876C8.5287 69.2288 26.9552 82.6468 46.5963 79.5576C64.1018 76.8044 77.0003 61.7213 77.0035 44.0007C76.9145 26.2649 63.9946 11.2026 46.479 8.41474Z" fill="url(#paint0_linear_312_2388)"/>
<path d="M41.0028 45.3341C41.7391 45.3341 42.3361 44.7371 42.3361 44.0007V1.33336C42.3361 0.59701 41.7391 0 41.0028 0C40.2664 0 39.6694 0.59701 39.6694 1.33336V44.0007C39.6694 44.7371 40.2664 45.3341 41.0028 45.3341Z" fill="url(#paint1_linear_312_2388)"/>
</g>
<defs>
<filter id="filter0_d_312_2388" x="-3" y="0" width="88" height="88" filterUnits="userSpaceOnUse" color-interpolation-filters="sRGB">
<feFlood flood-opacity="0" result="BackgroundImageFix"/>
<feColorMatrix in="SourceAlpha" type="matrix" values="0 0 0 0 0 0 0 0 0 0 0 0 0 0 0 0 0 0 127 0" result="hardAlpha"/>
<feOffset dy="4"/>
<feGaussianBlur stdDeviation="2"/>
<feComposite in2="hardAlpha" operator="out"/>
<feColorMatrix type="matrix" values="0 0 0 0 0 0 0 0 0 0 0 0 0 0 0 0 0 0 0.45 0"/>
<feBlend mode="normal" in2="BackgroundImageFix" result="effect1_dropShadow_312_2388"/>
<feBlend mode="normal" in="SourceGraphic" in2="effect1_dropShadow_312_2388" result="shape"/>
</filter>
<linearGradient id="paint0_linear_312_2388" x1="5.04502" y1="8.70002" x2="74.4677" y2="82.0451" gradientUnits="userSpaceOnUse">
<stop stop-color="#E6BD73"/>
<stop offset="1" stop-color="#EACC95"/>
</linearGradient>
<linearGradient id="paint1_linear_312_2388" x1="39.6712" y1="0.195561" x2="45.0913" y2="0.530543" gradientUnits="userSpaceOnUse">
<stop stop-color="#E6BD73"/>
<stop offset="1" stop-color="#EACC95"/>
</linearGradient>
<clipPath id="clip0_312_2388">
<rect width="80" height="80" fill="white" transform="translate(1)"/>
</clipPath>
</defs>
</svg>
