<svg width="80" height="80" viewBox="0 0 80 80" fill="none" xmlns="http://www.w3.org/2000/svg">
<g clip-path="url(#clip0_312_2419)">
<g filter="url(#filter0_d_312_2419)">
<path d="M40 37.3333C35.582 37.3333 32 33.7512 32 29.3333C32 24.9153 35.582 21.3333 40 21.3333C44.418 21.3333 48 24.9153 48 29.3333C47.9954 33.7499 44.4167 37.3287 40 37.3333ZM40 23.9999C37.0547 23.9999 34.6667 26.3879 34.6667 29.3333C34.6667 32.2786 37.0547 34.6666 40 34.6666C42.9453 34.6666 45.3333 32.2786 45.3333 29.3333C45.3333 26.3879 42.9453 23.9999 40 23.9999Z" fill="url(#paint0_linear_312_2419)"/>
</g>
<g filter="url(#filter1_d_312_2419)">
<path d="M62.6667 42.6667C58.2488 42.6667 54.6667 39.0847 54.6667 34.6667C54.6667 30.2488 58.2488 26.6667 62.6667 26.6667C67.0847 26.6667 70.6667 30.2488 70.6667 34.6667C70.6622 39.0834 67.0834 42.6622 62.6667 42.6667ZM62.6667 29.3334C59.7214 29.3334 57.3334 31.7214 57.3334 34.6667C57.3334 37.6121 59.7214 40.0001 62.6667 40.0001C65.6121 40.0001 68.0001 37.6121 68.0001 34.6667C68.0001 31.7214 65.6121 29.3334 62.6667 29.3334Z" fill="url(#paint1_linear_312_2419)"/>
</g>
<g filter="url(#filter2_d_312_2419)">
<path d="M17.3333 42.6667C12.9153 42.6667 9.33325 39.0847 9.33325 34.6667C9.33325 30.2488 12.9153 26.6667 17.3333 26.6667C21.7512 26.6667 25.3333 30.2488 25.3333 34.6667C25.3287 39.0834 21.7499 42.6622 17.3333 42.6667ZM17.3333 29.3334C14.3879 29.3334 11.9999 31.7214 11.9999 34.6667C11.9999 37.6121 14.3879 40.0001 17.3333 40.0001C20.2786 40.0001 22.6666 37.6121 22.6666 34.6667C22.6666 31.7214 20.2786 29.3334 17.3333 29.3334Z" fill="url(#paint2_linear_312_2419)"/>
</g>
<g filter="url(#filter3_d_312_2419)">
<path d="M54.6667 26.6667C50.2488 26.6667 46.6667 23.0847 46.6667 18.6667C46.6667 14.2488 50.2488 10.6667 54.6667 10.6667C59.0847 10.6667 62.6667 14.2488 62.6667 18.6667C62.6622 23.0834 59.0834 26.6622 54.6667 26.6667ZM54.6667 13.3334C51.7214 13.3334 49.3334 15.7214 49.3334 18.6667C49.3334 21.6121 51.7214 24.0001 54.6667 24.0001C57.6121 24.0001 60.0001 21.6121 60.0001 18.6667C60.0001 15.7214 57.6121 13.3334 54.6667 13.3334Z" fill="url(#paint3_linear_312_2419)"/>
</g>
<g filter="url(#filter4_d_312_2419)">
<path d="M40 16C35.582 16 32 12.418 32 8C32 3.58203 35.582 0 40 0C44.418 0 48 3.58203 48 8C47.9954 12.4167 44.4167 15.9954 40 16ZM40 2.66667C37.0547 2.66667 34.6667 5.05469 34.6667 8C34.6667 10.9453 37.0547 13.3333 40 13.3333C42.9453 13.3333 45.3333 10.9453 45.3333 8C45.3333 5.05469 42.9453 2.66667 40 2.66667Z" fill="url(#paint4_linear_312_2419)"/>
</g>
<g filter="url(#filter5_d_312_2419)">
<path d="M25.3333 26.6667C20.9153 26.6667 17.3333 23.0847 17.3333 18.6667C17.3333 14.2488 20.9153 10.6667 25.3333 10.6667C29.7512 10.6667 33.3333 14.2488 33.3333 18.6667C33.3287 23.0834 29.7499 26.6622 25.3333 26.6667ZM25.3333 13.3334C22.3879 13.3334 19.9999 15.7214 19.9999 18.6667C19.9999 21.6121 22.3879 24.0001 25.3333 24.0001C28.2786 24.0001 30.6666 21.6121 30.6666 18.6667C30.6666 15.7214 28.2786 13.3334 25.3333 13.3334Z" fill="url(#paint5_linear_312_2419)"/>
</g>
<g filter="url(#filter6_d_312_2419)">
<path d="M38.6667 69.3333H41.3334V79.9999H38.6667V69.3333Z" fill="url(#paint6_linear_312_2419)"/>
</g>
<g filter="url(#filter7_d_312_2419)">
<path d="M74.7546 46.0878C72.7676 44.7219 70.4115 43.9934 68 43.9999H57.3333C56.6855 44.0057 56.0397 44.0643 55.401 44.1744C54.5358 42.8248 53.4095 41.662 52.0879 40.7544C50.1009 39.3886 47.7448 38.66 45.3333 38.6665H34.6667C30.5905 38.6698 26.7949 40.744 24.5905 44.1731C23.9551 44.0637 23.3118 44.0057 22.6667 43.9999H12C9.5905 43.9934 7.23568 44.7206 5.24935 46.0852C1.96745 48.3182 0.00195313 52.0305 0 55.9999V63.9999C0.00390625 67.6405 2.12305 70.9471 5.42904 72.4719C6.24349 72.8521 7.11003 73.108 8 73.229V79.9999H10.6667V51.9999H8V70.5331C7.4987 70.4322 7.01107 70.2714 6.54818 70.0546C4.1849 68.9647 2.66992 66.6021 2.66667 63.9999V55.9999C2.66992 52.9107 4.20052 50.0227 6.75456 48.285C8.29818 47.2258 10.1276 46.6613 12 46.6665H22.6667C22.8984 46.6665 23.1237 46.6919 23.3522 46.7076C22.901 47.979 22.6693 49.3176 22.6667 50.6665V61.3332C22.668 63.0188 23.1289 64.6724 24 66.1158V79.9999H26.6667V68.981C27.8574 69.8143 29.2279 70.3547 30.6667 70.5598V79.9999H33.3333V46.6665H30.6667V67.8664C27.5645 67.2284 25.3372 64.4999 25.3333 61.3332V50.6665C25.3392 45.5142 29.5143 41.3391 34.6667 41.3332H45.3333C47.207 41.328 49.0384 41.8938 50.5827 42.9543C53.1348 44.6926 54.6634 47.5787 54.6667 50.6665V61.3332C54.6621 63.9432 53.1367 66.3111 50.7624 67.3944C50.3073 67.6099 49.8275 67.7681 49.3333 67.8664V46.6665H46.6667V79.9999H49.3333V70.5624C50.2155 70.4439 51.0749 70.1919 51.8815 69.8156C52.3906 69.58 52.8763 69.2968 53.3333 68.9706V79.9999H56V66.0917C56.8704 64.6574 57.332 63.0116 57.3333 61.3332V50.6665C57.3281 49.3176 57.0951 47.979 56.6439 46.7076C56.873 46.6919 57.1003 46.6665 57.3333 46.6665H68C69.8737 46.6613 71.7051 47.2271 73.2494 48.2876C75.8014 50.0259 77.3301 52.912 77.3333 55.9999V63.9999C77.3288 66.6099 75.8034 68.9777 73.429 70.0611C72.974 70.2766 72.4941 70.4348 72 70.5331V51.9999H69.3333V79.9999H72V73.229C72.8822 73.1106 73.7415 72.8586 74.5482 72.4823C77.8659 70.9621 79.9948 67.6496 80 63.9999V55.9999C79.998 52.0318 78.0345 48.3215 74.7546 46.0878Z" fill="url(#paint7_linear_312_2419)"/>
</g>
<g filter="url(#filter8_d_312_2419)">
<path d="M61.3333 74.6667H63.9999V80.0001H61.3333V74.6667Z" fill="url(#paint8_linear_312_2419)"/>
</g>
<g filter="url(#filter9_d_312_2419)">
<path d="M16 74.6667H18.6667V80.0001H16V74.6667Z" fill="url(#paint9_linear_312_2419)"/>
</g>
</g>
<defs>
<filter id="filter0_d_312_2419" x="28" y="21.3333" width="24" height="24" filterUnits="userSpaceOnUse" color-interpolation-filters="sRGB">
<feFlood flood-opacity="0" result="BackgroundImageFix"/>
<feColorMatrix in="SourceAlpha" type="matrix" values="0 0 0 0 0 0 0 0 0 0 0 0 0 0 0 0 0 0 127 0" result="hardAlpha"/>
<feOffset dy="4"/>
<feGaussianBlur stdDeviation="2"/>
<feComposite in2="hardAlpha" operator="out"/>
<feColorMatrix type="matrix" values="0 0 0 0 0 0 0 0 0 0 0 0 0 0 0 0 0 0 0.45 0"/>
<feBlend mode="normal" in2="BackgroundImageFix" result="effect1_dropShadow_312_2419"/>
<feBlend mode="normal" in="SourceGraphic" in2="effect1_dropShadow_312_2419" result="shape"/>
</filter>
<filter id="filter1_d_312_2419" x="50.6667" y="26.6667" width="24" height="24" filterUnits="userSpaceOnUse" color-interpolation-filters="sRGB">
<feFlood flood-opacity="0" result="BackgroundImageFix"/>
<feColorMatrix in="SourceAlpha" type="matrix" values="0 0 0 0 0 0 0 0 0 0 0 0 0 0 0 0 0 0 127 0" result="hardAlpha"/>
<feOffset dy="4"/>
<feGaussianBlur stdDeviation="2"/>
<feComposite in2="hardAlpha" operator="out"/>
<feColorMatrix type="matrix" values="0 0 0 0 0 0 0 0 0 0 0 0 0 0 0 0 0 0 0.45 0"/>
<feBlend mode="normal" in2="BackgroundImageFix" result="effect1_dropShadow_312_2419"/>
<feBlend mode="normal" in="SourceGraphic" in2="effect1_dropShadow_312_2419" result="shape"/>
</filter>
<filter id="filter2_d_312_2419" x="5.33325" y="26.6667" width="24" height="24" filterUnits="userSpaceOnUse" color-interpolation-filters="sRGB">
<feFlood flood-opacity="0" result="BackgroundImageFix"/>
<feColorMatrix in="SourceAlpha" type="matrix" values="0 0 0 0 0 0 0 0 0 0 0 0 0 0 0 0 0 0 127 0" result="hardAlpha"/>
<feOffset dy="4"/>
<feGaussianBlur stdDeviation="2"/>
<feComposite in2="hardAlpha" operator="out"/>
<feColorMatrix type="matrix" values="0 0 0 0 0 0 0 0 0 0 0 0 0 0 0 0 0 0 0.45 0"/>
<feBlend mode="normal" in2="BackgroundImageFix" result="effect1_dropShadow_312_2419"/>
<feBlend mode="normal" in="SourceGraphic" in2="effect1_dropShadow_312_2419" result="shape"/>
</filter>
<filter id="filter3_d_312_2419" x="42.6667" y="10.6667" width="24" height="24" filterUnits="userSpaceOnUse" color-interpolation-filters="sRGB">
<feFlood flood-opacity="0" result="BackgroundImageFix"/>
<feColorMatrix in="SourceAlpha" type="matrix" values="0 0 0 0 0 0 0 0 0 0 0 0 0 0 0 0 0 0 127 0" result="hardAlpha"/>
<feOffset dy="4"/>
<feGaussianBlur stdDeviation="2"/>
<feComposite in2="hardAlpha" operator="out"/>
<feColorMatrix type="matrix" values="0 0 0 0 0 0 0 0 0 0 0 0 0 0 0 0 0 0 0.45 0"/>
<feBlend mode="normal" in2="BackgroundImageFix" result="effect1_dropShadow_312_2419"/>
<feBlend mode="normal" in="SourceGraphic" in2="effect1_dropShadow_312_2419" result="shape"/>
</filter>
<filter id="filter4_d_312_2419" x="28" y="0" width="24" height="24" filterUnits="userSpaceOnUse" color-interpolation-filters="sRGB">
<feFlood flood-opacity="0" result="BackgroundImageFix"/>
<feColorMatrix in="SourceAlpha" type="matrix" values="0 0 0 0 0 0 0 0 0 0 0 0 0 0 0 0 0 0 127 0" result="hardAlpha"/>
<feOffset dy="4"/>
<feGaussianBlur stdDeviation="2"/>
<feComposite in2="hardAlpha" operator="out"/>
<feColorMatrix type="matrix" values="0 0 0 0 0 0 0 0 0 0 0 0 0 0 0 0 0 0 0.45 0"/>
<feBlend mode="normal" in2="BackgroundImageFix" result="effect1_dropShadow_312_2419"/>
<feBlend mode="normal" in="SourceGraphic" in2="effect1_dropShadow_312_2419" result="shape"/>
</filter>
<filter id="filter5_d_312_2419" x="13.3333" y="10.6667" width="24" height="24" filterUnits="userSpaceOnUse" color-interpolation-filters="sRGB">
<feFlood flood-opacity="0" result="BackgroundImageFix"/>
<feColorMatrix in="SourceAlpha" type="matrix" values="0 0 0 0 0 0 0 0 0 0 0 0 0 0 0 0 0 0 127 0" result="hardAlpha"/>
<feOffset dy="4"/>
<feGaussianBlur stdDeviation="2"/>
<feComposite in2="hardAlpha" operator="out"/>
<feColorMatrix type="matrix" values="0 0 0 0 0 0 0 0 0 0 0 0 0 0 0 0 0 0 0.45 0"/>
<feBlend mode="normal" in2="BackgroundImageFix" result="effect1_dropShadow_312_2419"/>
<feBlend mode="normal" in="SourceGraphic" in2="effect1_dropShadow_312_2419" result="shape"/>
</filter>
<filter id="filter6_d_312_2419" x="34.6667" y="69.3333" width="10.6667" height="18.6667" filterUnits="userSpaceOnUse" color-interpolation-filters="sRGB">
<feFlood flood-opacity="0" result="BackgroundImageFix"/>
<feColorMatrix in="SourceAlpha" type="matrix" values="0 0 0 0 0 0 0 0 0 0 0 0 0 0 0 0 0 0 127 0" result="hardAlpha"/>
<feOffset dy="4"/>
<feGaussianBlur stdDeviation="2"/>
<feComposite in2="hardAlpha" operator="out"/>
<feColorMatrix type="matrix" values="0 0 0 0 0 0 0 0 0 0 0 0 0 0 0 0 0 0 0.45 0"/>
<feBlend mode="normal" in2="BackgroundImageFix" result="effect1_dropShadow_312_2419"/>
<feBlend mode="normal" in="SourceGraphic" in2="effect1_dropShadow_312_2419" result="shape"/>
</filter>
<filter id="filter7_d_312_2419" x="-4" y="38.6665" width="88" height="49.3335" filterUnits="userSpaceOnUse" color-interpolation-filters="sRGB">
<feFlood flood-opacity="0" result="BackgroundImageFix"/>
<feColorMatrix in="SourceAlpha" type="matrix" values="0 0 0 0 0 0 0 0 0 0 0 0 0 0 0 0 0 0 127 0" result="hardAlpha"/>
<feOffset dy="4"/>
<feGaussianBlur stdDeviation="2"/>
<feComposite in2="hardAlpha" operator="out"/>
<feColorMatrix type="matrix" values="0 0 0 0 0 0 0 0 0 0 0 0 0 0 0 0 0 0 0.45 0"/>
<feBlend mode="normal" in2="BackgroundImageFix" result="effect1_dropShadow_312_2419"/>
<feBlend mode="normal" in="SourceGraphic" in2="effect1_dropShadow_312_2419" result="shape"/>
</filter>
<filter id="filter8_d_312_2419" x="57.3333" y="74.6667" width="10.6667" height="13.3333" filterUnits="userSpaceOnUse" color-interpolation-filters="sRGB">
<feFlood flood-opacity="0" result="BackgroundImageFix"/>
<feColorMatrix in="SourceAlpha" type="matrix" values="0 0 0 0 0 0 0 0 0 0 0 0 0 0 0 0 0 0 127 0" result="hardAlpha"/>
<feOffset dy="4"/>
<feGaussianBlur stdDeviation="2"/>
<feComposite in2="hardAlpha" operator="out"/>
<feColorMatrix type="matrix" values="0 0 0 0 0 0 0 0 0 0 0 0 0 0 0 0 0 0 0.45 0"/>
<feBlend mode="normal" in2="BackgroundImageFix" result="effect1_dropShadow_312_2419"/>
<feBlend mode="normal" in="SourceGraphic" in2="effect1_dropShadow_312_2419" result="shape"/>
</filter>
<filter id="filter9_d_312_2419" x="12" y="74.6667" width="10.6667" height="13.3333" filterUnits="userSpaceOnUse" color-interpolation-filters="sRGB">
<feFlood flood-opacity="0" result="BackgroundImageFix"/>
<feColorMatrix in="SourceAlpha" type="matrix" values="0 0 0 0 0 0 0 0 0 0 0 0 0 0 0 0 0 0 127 0" result="hardAlpha"/>
<feOffset dy="4"/>
<feGaussianBlur stdDeviation="2"/>
<feComposite in2="hardAlpha" operator="out"/>
<feColorMatrix type="matrix" values="0 0 0 0 0 0 0 0 0 0 0 0 0 0 0 0 0 0 0.45 0"/>
<feBlend mode="normal" in2="BackgroundImageFix" result="effect1_dropShadow_312_2419"/>
<feBlend mode="normal" in="SourceGraphic" in2="effect1_dropShadow_312_2419" result="shape"/>
</filter>
<linearGradient id="paint0_linear_312_2419" x1="32.0107" y1="21.4023" x2="47.5266" y2="37.7044" gradientUnits="userSpaceOnUse">
<stop stop-color="#E6BD73"/>
<stop offset="1" stop-color="#EACC95"/>
</linearGradient>
<linearGradient id="paint1_linear_312_2419" x1="54.6774" y1="26.7358" x2="70.1934" y2="43.0379" gradientUnits="userSpaceOnUse">
<stop stop-color="#E6BD73"/>
<stop offset="1" stop-color="#EACC95"/>
</linearGradient>
<linearGradient id="paint2_linear_312_2419" x1="9.34391" y1="26.7358" x2="24.8599" y2="43.0379" gradientUnits="userSpaceOnUse">
<stop stop-color="#E6BD73"/>
<stop offset="1" stop-color="#EACC95"/>
</linearGradient>
<linearGradient id="paint3_linear_312_2419" x1="46.6774" y1="10.7358" x2="62.1934" y2="27.0379" gradientUnits="userSpaceOnUse">
<stop stop-color="#E6BD73"/>
<stop offset="1" stop-color="#EACC95"/>
</linearGradient>
<linearGradient id="paint4_linear_312_2419" x1="32.0107" y1="0.0690202" x2="47.5266" y2="16.3712" gradientUnits="userSpaceOnUse">
<stop stop-color="#E6BD73"/>
<stop offset="1" stop-color="#EACC95"/>
</linearGradient>
<linearGradient id="paint5_linear_312_2419" x1="17.3439" y1="10.7358" x2="32.8599" y2="27.0379" gradientUnits="userSpaceOnUse">
<stop stop-color="#E6BD73"/>
<stop offset="1" stop-color="#EACC95"/>
</linearGradient>
<linearGradient id="paint6_linear_312_2419" x1="38.6685" y1="69.3793" x2="43.7581" y2="70.7161" gradientUnits="userSpaceOnUse">
<stop stop-color="#E6BD73"/>
<stop offset="1" stop-color="#EACC95"/>
</linearGradient>
<linearGradient id="paint7_linear_312_2419" x1="0.0532751" y1="38.8448" x2="31.8372" y2="103.479" gradientUnits="userSpaceOnUse">
<stop stop-color="#E6BD73"/>
<stop offset="1" stop-color="#EACC95"/>
</linearGradient>
<linearGradient id="paint8_linear_312_2419" x1="61.335" y1="74.6898" x2="65.599" y2="76.9297" gradientUnits="userSpaceOnUse">
<stop stop-color="#E6BD73"/>
<stop offset="1" stop-color="#EACC95"/>
</linearGradient>
<linearGradient id="paint9_linear_312_2419" x1="16.0018" y1="74.6898" x2="20.2657" y2="76.9297" gradientUnits="userSpaceOnUse">
<stop stop-color="#E6BD73"/>
<stop offset="1" stop-color="#EACC95"/>
</linearGradient>
<clipPath id="clip0_312_2419">
<rect width="80" height="80" fill="white"/>
</clipPath>
</defs>
</svg>
