<svg width="89" height="80" viewBox="0 0 89 80" fill="none" xmlns="http://www.w3.org/2000/svg">
<g filter="url(#filter0_d_312_2442)">
<path d="M10.2578 54.8067C11.6046 55.9463 13.0406 56.9214 14.5655 57.7286L14.5734 57.7328L14.5813 57.7369C16.7426 58.8484 19.0855 59.3996 21.5865 59.3996C24.3791 59.3996 26.7848 58.8368 28.6648 57.561L28.6798 57.5509L28.6944 57.5404C30.6618 56.1352 31.6507 54.1171 31.6507 51.6636C31.6507 50.3175 31.3956 49.0536 30.858 47.8979C30.3215 46.619 29.3584 45.6263 28.1002 44.8922C26.833 44.0981 25.2022 43.5568 23.2898 43.2073C21.6683 42.8653 19.7097 42.6725 17.4325 42.6154V36.9269C19.2352 36.8696 20.8109 36.7042 22.1449 36.4188C23.8555 36.0644 25.3241 35.5419 26.4756 34.7968L26.4843 34.7912L26.4928 34.7855C27.6442 34.0179 28.5539 33.083 29.0899 31.9456C29.638 30.8424 29.9046 29.6468 29.9046 28.3823C29.9046 26.2391 29.2441 24.3844 27.7601 23.0403C26.2829 21.6459 24.2552 21.062 21.9191 21.062C19.8052 21.062 17.8408 21.5306 16.0556 22.4869L16.0455 22.4924L16.0355 22.4979C14.7981 23.1854 13.5276 24.0554 12.224 25.099L7.98016 19.9375C9.9671 18.3671 12.0148 17.1256 14.1224 16.2035L14.129 16.2006L14.1356 16.1976C16.6402 15.0731 19.4214 14.5 22.5011 14.5C25.0959 14.5 27.4146 14.8178 29.4702 15.4345L29.4913 15.4408L29.5126 15.4465C31.614 16.0103 33.3252 16.8658 34.6863 17.9839L34.7088 18.0023L34.7319 18.0198C36.1594 19.1028 37.2563 20.4212 38.0384 21.9856C38.8045 23.5178 39.2104 25.332 39.2104 27.4677C39.2104 29.9403 38.5257 31.9548 37.211 33.5981L37.2076 33.6024C35.9019 35.2466 33.9643 36.666 31.3027 37.8141L30.3968 38.2049V39.1914V39.524V40.6499L31.4778 40.9643C34.2837 41.7806 36.5278 43.1648 38.2637 45.099L38.2772 45.1141L38.2911 45.1288C39.975 46.9062 40.8734 49.2835 40.8734 52.4119C40.8734 54.6241 40.3986 56.5606 39.4798 58.2567C38.5345 59.9457 37.2678 61.3896 35.6652 62.5939C34.0492 63.7532 32.1332 64.6787 29.8983 65.3559C27.66 65.979 25.2794 66.2942 22.7506 66.2942C18.5781 66.2942 15.1437 65.652 12.3948 64.4325C9.98291 63.3146 7.96099 61.9036 6.30919 60.207L10.2578 54.8067ZM58.4127 16.1004L58.4257 16.0942L58.4386 16.0877C60.5409 15.0366 62.886 14.5 65.5005 14.5C68.1151 14.5 70.4601 15.0366 72.5624 16.0877L72.5753 16.0942L72.5883 16.1004C74.6568 17.0854 76.4291 18.6199 77.9024 20.7535L77.914 20.7704L77.9262 20.787C79.4548 22.8761 80.6603 25.5211 81.5106 28.7628L81.5135 28.7739L81.5166 28.785C82.4138 32.0046 82.875 35.7995 82.875 40.1892C82.875 44.5782 82.414 48.4035 81.5149 51.6827L81.5119 51.6935L81.5091 51.7045C80.6576 55.0042 79.4496 57.7079 77.9161 59.8548L77.9092 59.8645L77.9024 59.8744C76.4251 62.0138 74.6408 63.6148 72.5497 64.7128C70.4507 65.7597 68.1098 66.2942 65.5005 66.2942C62.8912 66.2942 60.5504 65.7597 58.4513 64.7128C56.3579 63.6136 54.5429 62.0095 53.0088 59.8645C51.5231 57.7099 50.3131 54.998 49.406 51.6936C48.5596 48.409 48.1261 44.5796 48.1261 40.1892C48.1261 35.7983 48.5597 31.9993 49.4044 28.774C50.3113 25.5236 51.5206 22.868 53.0039 20.7701C54.5351 18.6274 56.3397 17.0876 58.4127 16.1004ZM69.1461 58.8744L69.1763 58.8574L69.2057 58.839C70.4217 58.079 71.3573 56.8347 72.0911 55.306C72.846 53.7332 73.3738 51.7161 73.7179 49.3153C74.1227 46.878 74.3175 43.8281 74.3175 40.1892C74.3175 36.5532 74.123 33.529 73.7175 31.1433C73.375 28.7552 72.8472 26.7744 72.0749 25.289C71.3352 23.8133 70.3858 22.6171 69.1461 21.9198L68.4107 23.2271L69.1461 21.9198C68.0266 21.2901 66.8019 20.9788 65.5005 20.9788C64.2399 20.9788 63.0449 21.2972 61.9381 21.9198C60.6985 22.6171 59.7491 23.8131 59.0095 25.2887C58.2427 26.7631 57.685 28.7362 57.2864 31.1265C56.8789 33.5148 56.6836 36.5447 56.6836 40.1892C56.6836 43.8367 56.8793 46.8924 57.286 49.3326C57.6862 51.7341 58.2433 53.7438 58.9931 55.306C59.7269 56.8347 60.6625 58.079 61.8785 58.839L61.9079 58.8574L61.9381 58.8744C63.0449 59.4969 64.2399 59.8154 65.5005 59.8154C66.8019 59.8154 68.0266 59.5041 69.1461 58.8744Z" stroke="url(#paint0_linear_312_2442)" stroke-width="3" shape-rendering="crispEdges"/>
</g>
<defs>
<filter id="filter0_d_312_2442" x="0.375" y="13" width="88" height="62.7942" filterUnits="userSpaceOnUse" color-interpolation-filters="sRGB">
<feFlood flood-opacity="0" result="BackgroundImageFix"/>
<feColorMatrix in="SourceAlpha" type="matrix" values="0 0 0 0 0 0 0 0 0 0 0 0 0 0 0 0 0 0 127 0" result="hardAlpha"/>
<feOffset dy="4"/>
<feGaussianBlur stdDeviation="2"/>
<feComposite in2="hardAlpha" operator="out"/>
<feColorMatrix type="matrix" values="0 0 0 0 0 0 0 0 0 0 0 0 0 0 0 0 0 0 0.45 0"/>
<feBlend mode="normal" in2="BackgroundImageFix" result="effect1_dropShadow_312_2442"/>
<feBlend mode="normal" in="SourceGraphic" in2="effect1_dropShadow_312_2442" result="shape"/>
</filter>
<linearGradient id="paint0_linear_312_2442" x1="4.42828" y1="13.2364" x2="53.1057" y2="87.9068" gradientUnits="userSpaceOnUse">
<stop stop-color="#E6BD73"/>
<stop offset="1" stop-color="#EACC95"/>
</linearGradient>
</defs>
</svg>
